<?xml version="1.0" encoding="UTF-8"?>
<svg width="40px" height="40px" viewBox="0 0 40 40" version="1.1" xmlns="http://www.w3.org/2000/svg" xmlns:xlink="http://www.w3.org/1999/xlink">
    <title>临时功能/icon/待改进</title>
    <!-- <defs>
        <filter id="filter-1">
            <feColorMatrix in="SourceGraphic" type="matrix" values="0 0 0 0 1.000000 0 0 0 0 1.000000 0 0 0 0 1.000000 0 0 0 1.000000 0"></feColorMatrix>
        </filter>
    </defs> -->
    <g id="临时功能/icon/待改进" stroke="none" stroke-width="1" >
        <g  id="编组">
            <g>
                <path d="M20.4736798,3.0048741 C9.81770832,3.0048741 1.32038212,12.6626281 3.29186163,23.655498 C4.5645889,30.7178866 10.229473,36.3952484 17.2918616,37.655498 C28.2847315,39.6269775 37.9424855,31.1296513 37.9424855,20.4736798 C37.9424855,10.8658367 30.081523,3.0048741 20.4736798,3.0048741 Z M11.739277,15.0209169 C11.739277,13.8230559 12.7250167,12.8373162 13.9228777,12.8373162 C15.1207386,12.8373162 16.1064784,13.8230559 16.1064784,15.0209169 C16.1064784,16.2187778 15.1207386,17.2045176 13.9228777,17.2045176 C12.7250167,17.1920399 11.739277,16.2187778 11.739277,15.0209169 Z M25.8765319,27.1866923 C25.4897226,27.5735015 24.8907921,27.6109347 24.4665497,27.2740363 C23.3193786,26.3991404 21.9164008,25.9256354 20.4736798,25.9264427 C18.9638759,25.9264427 17.5913269,26.4380292 16.4808099,27.2740363 C16.0087591,27.6358271 15.3327968,27.5464437 14.971006,27.0743928 C14.6092152,26.602342 14.6985986,25.9263797 15.1706495,25.5645889 C16.688271,24.3876885 18.5531976,23.7470314 20.4736798,23.742842 C22.457637,23.742842 24.2793839,24.4041611 25.7767101,25.5645889 C26.3007743,25.9638759 26.3382075,26.7250167 25.8765319,27.1866923 Z M27.024482,17.1920399 C25.826621,17.1920399 24.8408813,16.2063001 24.8408813,15.0084392 C24.8408813,13.8105782 25.826621,12.8248385 27.024482,12.8248385 C28.2223429,12.8248385 29.2080827,13.8105782 29.2080827,15.0084392 C29.2080827,16.2187778 28.2223429,17.1920399 27.024482,17.1920399 Z" id="形状" ></path>
            </g>
        </g>
    </g>
</svg>