<?xml version="1.0" encoding="UTF-8"?>
<svg width="181px" height="198px" viewBox="0 0 181 198" version="1.1" xmlns="http://www.w3.org/2000/svg" xmlns:xlink="http://www.w3.org/1999/xlink">
    <title>icon/任务/口语</title>
    <defs>
        <linearGradient x1="4.82383086%" y1="4.11623934%" x2="50%" y2="83.9542822%" id="linearGradient-1">
            <stop stop-color="#82A8FF" offset="0%"></stop>
            <stop stop-color="#4769E7" offset="100%"></stop>
        </linearGradient>
    </defs>
    <g id="2课堂" stroke="none" stroke-width="1" fill="none" fill-rule="evenodd">
        <g id="2.5.1课程-任务" transform="translate(-117.000000, -1298.000000)">
            <g id="组件/任务pc备份-4" transform="translate(0.000000, 1267.000000)">
                <g id="编组-48" transform="translate(117.000000, 31.000000)">
                    <rect id="矩形备份-4" fill="#DCEDFF" x="0" y="0" width="180" height="198" rx="10"></rect>
                    <g id="编组-4" transform="translate(64.800000, 139.500000)" fill="#2548CD" font-family="SourceHanSansCN-Regular, Source Han Sans CN" font-size="28" font-weight="normal">
                        <text id="口语">
                            <tspan x="0.5" y="25">口语</tspan>
                        </text>
                    </g>
                    <g id="编组-35" transform="translate(41.400000, 36.900000)">
                        <path d="M0,19.7307692 C-4.88721166e-15,8.83376628 8.83376628,2.00174697e-15 19.7307692,0 L77.4692308,0 C88.3662337,-2.00174697e-15 97.2,8.83376628 97.2,19.7307692 L97.2,57.4330562 C97.2,68.3300592 88.3662337,77.1638255 77.4692308,77.1638255 L21.908,77.163 L6.50588281,87.7451656 C4.61497392,89.0441595 2.02904671,88.5643177 0.730052729,86.6734088 C0.25454066,85.9812193 0,85.1611567 0,84.3213721 L0,19.7307692 Z" id="形状结合" fill="url(#linearGradient-1)"></path>
                        <path d="M74.3538462,8.41153846 C81.8096903,8.41153846 87.8538462,14.4556943 87.8538462,21.9115385 L87.8538462,53.7923077 C87.8538462,61.2481518 81.8096903,67.2923077 74.3538462,67.2923077 L23.7807692,67.2923077 L23.5127692,67.2885385 L16.8314434,72.0104784 C14.9577688,73.33421 12.365759,72.8883931 11.0420274,71.0147185 C10.5467133,70.3136266 10.2807692,69.4762994 10.2807692,68.6178905 L10.2807692,55.1423077 L10.3501137,55.1691093 C10.3042582,54.7164098 10.2807692,54.2571018 10.2807692,53.7923077 L10.2807692,21.9115385 C10.2807692,14.4556943 16.3249251,8.41153846 23.7807692,8.41153846 L74.3538462,8.41153846 Z" id="形状结合" fill="#8AB0FE"></path>
                        <path d="M32.4342773,49.5 L34.4548828,43.9391602 L44.240625,43.9391602 L46.378125,49.5 L51.7552734,49.5 L41.952832,25.0189453 L36.7259766,25.0189453 L27.1907227,49.5 L32.4342773,49.5 Z M42.6541992,39.8144531 L35.9745117,39.8144531 L39.280957,30.7300781 L42.6541992,39.8144531 Z M59.0027344,49.9007813 C60.0380859,49.9007813 61.012207,49.705957 61.9250977,49.3163086 C62.8379883,48.9266602 63.6952148,48.3421875 64.4967773,47.5628906 C64.5301758,47.6519531 64.5858398,47.8356445 64.6637695,48.1139648 C64.8418945,48.7262695 64.9921875,49.1882813 65.1146484,49.5 L65.1146484,49.5 L69.7570312,49.5 C69.3451172,48.6539063 69.0640137,47.8606934 68.9137207,47.1203613 C68.7634277,46.3800293 68.6882812,45.2305664 68.6882812,43.6719727 L68.6882812,43.6719727 L68.7383789,38.1946289 C68.7383789,36.1573242 68.5296387,34.757373 68.1121582,33.9947754 C67.6946777,33.2321777 66.9738281,32.6031738 65.9496094,32.1077637 C64.9253906,31.6123535 63.3667969,31.3646484 61.2738281,31.3646484 C58.9693359,31.3646484 57.2326172,31.7765625 56.0636719,32.6003906 C54.8947266,33.4242188 54.0708984,34.6933594 53.5921875,36.4078125 L53.5921875,36.4078125 L57.8504883,37.1759766 C58.1399414,36.3521484 58.518457,35.7760254 58.9860352,35.4476074 C59.4536133,35.1191895 60.1048828,34.9549805 60.9398437,34.9549805 C62.1755859,34.9549805 63.0161133,35.1470215 63.4614258,35.5311035 C63.9067383,35.9151855 64.1293945,36.5581055 64.1293945,37.4598633 L64.1293945,37.4598633 L64.1293945,37.9274414 C63.2833008,38.2836914 61.7636719,38.6677734 59.5705078,39.0796875 C57.9451172,39.3914063 56.7010254,39.7560059 55.8382324,40.1734863 C54.9754395,40.5909668 54.3046875,41.1921387 53.8259766,41.977002 C53.3472656,42.7618652 53.1079102,43.6552734 53.1079102,44.6572266 C53.1079102,46.1712891 53.6339355,47.4237305 54.6859863,48.4145508 C55.7380371,49.4053711 57.1769531,49.9007813 59.0027344,49.9007813 Z M60.4054687,46.5943359 C59.6484375,46.5943359 59.025,46.3549805 58.5351562,45.8762695 C58.0453125,45.3975586 57.8003906,44.8297852 57.8003906,44.1729492 C57.8003906,43.5049805 58.106543,42.9539063 58.7188477,42.5197266 C59.1196289,42.2525391 59.9712891,41.9797852 61.2738281,41.7014648 C62.5763672,41.4231445 63.5282227,41.1837891 64.1293945,40.9833984 L64.1293945,40.9833984 L64.1293945,41.9185547 C64.1293945,43.0429688 64.0681641,43.8055664 63.9457031,44.2063477 C63.7675781,44.8186523 63.3946289,45.3363281 62.8268555,45.759375 C62.0586914,46.3160156 61.2515625,46.5943359 60.4054687,46.5943359 Z" id="Aa" fill="#FFFFFF" fill-rule="nonzero"></path>
                    </g>
                </g>
            </g>
        </g>
    </g>
</svg>