<?xml version="1.0" encoding="UTF-8"?>
<svg width="40px" height="40px" viewBox="0 0 40 40" version="1.1" xmlns="http://www.w3.org/2000/svg" xmlns:xlink="http://www.w3.org/1999/xlink" style="background: #797979;">
    <title>临时功能/icon/推送</title>
    <g id="临时功能/icon/推送" stroke="none" stroke-width="1" fill="none" fill-rule="evenodd">
        <rect fill="#797979" x="0" y="0" width="40" height="40"></rect>
        <g id="编组" fill="#FFFFFF" fill-rule="nonzero">
            <path d="M3.61324333,16.4606826 L35.7318557,3.07688703 C36.0803536,2.93163547 36.4809708,2.9953099 36.7672598,3.24145504 C37.0535488,3.48760018 37.1765724,3.87414088 37.0852172,4.2404782 L29.0849035,36.2442297 C29.0013162,36.5774217 28.7523698,36.8442785 28.4257782,36.9507758 C28.0991865,37.0572731 27.7407841,36.9884648 27.4768505,36.7685948 L20.5302611,30.9806026 C20.1330306,30.6501387 19.5493261,30.6772122 19.1843906,31.043027 L15.6212047,34.6037159 C15.3356305,34.887603 14.9075134,34.9722392 14.5353981,34.8183733 C14.1632828,34.6645075 13.9199571,34.3022366 13.9182665,33.8995685 L13.9182665,26.3736804 C13.9180582,26.108705 14.023151,25.8545061 14.2104128,25.667036 L28.7003691,11.1770797 L11.5935811,24.0090434 C11.223098,24.2865062 10.7105207,24.2730717 10.3550806,23.9765827 L3.35855168,18.1486389 C3.09082566,17.9250329 2.95915285,17.5779521 3.01119667,17.2330343 C3.06324049,16.8881164 3.29145996,16.595339 3.61324333,16.4606826 Z" id="路径"></path>
        </g>
    </g>
</svg>