<?xml version="1.0" encoding="UTF-8"?>
<svg width="37px" height="36px" viewBox="0 0 37 36" version="1.1" xmlns="http://www.w3.org/2000/svg" xmlns:xlink="http://www.w3.org/1999/xlink">
    <title>切片</title>
    <defs>
        <filter id="filter-1">
            <feColorMatrix in="SourceGraphic" type="matrix" values="0 0 0 0 1.000000 0 0 0 0 1.000000 0 0 0 0 1.000000 0 0 0 1.000000 0"></feColorMatrix>
        </filter>
    </defs>
    <g id="2课堂" stroke="none" stroke-width="1" fill="none" fill-rule="evenodd">
        <g id="2.5.5.2任务-口语-详细统计" transform="translate(-1500.000000, -906.000000)">
            <g id="编组" transform="translate(1186.000000, 894.000000)">
                <g id="临时功能/右边组件" transform="translate(270.000000, 0.000000)">
                    <g id="编组" transform="translate(44.812500, 12.000000)" filter="url(#filter-1)">
                        <g>
                            <path d="M18.4263118,2.70438669 C8.83593749,2.70438669 1.18834391,11.3963653 2.96267547,21.2899482 C4.10813001,27.6460979 9.20652572,32.7557236 15.5626755,33.8899482 C25.4562584,35.6642798 34.148237,28.0166862 34.148237,18.4263118 C34.148237,9.779253 27.0733707,2.70438669 18.4263118,2.70438669 Z M10.5653493,13.5188252 C10.5653493,12.4407503 11.452515,11.5535846 12.5305899,11.5535846 C13.6086648,11.5535846 14.4958305,12.4407503 14.4958305,13.5188252 C14.4958305,14.5969001 13.6086648,15.4840659 12.5305899,15.4840659 C11.452515,15.4728359 10.5653493,14.5969001 10.5653493,13.5188252 Z M23.2888787,24.4680231 C22.9407503,24.8161514 22.4017129,24.8498412 22.0198947,24.5466327 C20.9874407,23.7592263 19.7247607,23.3330718 18.4263118,23.3337985 C17.0674883,23.3337985 15.8321942,23.7942263 14.8327289,24.5466327 C14.4078831,24.8722444 13.7995171,24.7917993 13.4739054,24.3669535 C13.1482937,23.9421078 13.2287388,23.3337417 13.6535845,23.00813 C15.0194439,21.9489197 16.6978779,21.3723282 18.4263118,21.3685578 C20.2118733,21.3685578 21.8514455,21.963745 23.1990391,23.00813 C23.6706969,23.3674883 23.7043867,24.052515 23.2888787,24.4680231 Z M24.3220338,15.4728359 C23.2439589,15.4728359 22.3567931,14.5856701 22.3567931,13.5075953 C22.3567931,12.4295204 23.2439589,11.5423546 24.3220338,11.5423546 C25.4001086,11.5423546 26.2872744,12.4295204 26.2872744,13.5075953 C26.2872744,14.5969001 25.4001086,15.4728359 24.3220338,15.4728359 Z" id="形状" fill="#FA7575" fill-rule="nonzero"></path>
                        </g>
                    </g>
                </g>
            </g>
        </g>
    </g>
</svg>