<?xml version="1.0" encoding="UTF-8"?>
<svg width="37px" height="36px" viewBox="0 0 37 36" version="1.1" xmlns="http://www.w3.org/2000/svg" xmlns:xlink="http://www.w3.org/1999/xlink">
    <title>切片</title>
    <g id="2课堂" stroke="none" stroke-width="1" fill="none" fill-rule="evenodd">
        <g id="2.5.5.2任务-口语-详细统计" transform="translate(-1608.000000, -906.000000)" fill="#FFFFFF" fill-rule="nonzero">
            <g id="编组" transform="translate(1186.000000, 894.000000)">
                <g id="临时功能/右边组件" transform="translate(395.625000, 0.000000)">
                    <g id="编组" transform="translate(27.000000, 12.000000)">
                        <path d="M20.3000851,1.8 L20.4525202,1.80848571 C21.1074038,1.88162404 21.9504014,2.21998739 22.7536574,3.00780512 C24.5630278,4.78240034 25.1750607,7.95454019 24.2050492,12.7954905 L24.127306,13.1711674 L24.0942741,13.3188087 L29.9675087,13.3187744 C30.3155573,13.3032546 30.7026448,13.3364417 31.1061179,13.4551568 L31.309115,13.5218122 L31.5142137,13.603745 C32.5535818,14.0575289 33.2300201,15.0018508 33.2948779,16.3420088 L33.3,16.5568884 L33.2951355,16.7083906 L33.2788849,16.9655715 L33.2512289,17.2670853 L33.2113144,17.6141901 L33.158288,18.0081441 L33.0912964,18.4502054 L33.0094866,18.9416322 L32.9120051,19.4836825 L32.7943354,20.0958811 L32.6574501,20.7657966 L32.5052141,21.471219 L32.3373092,22.2126405 L32.1534177,22.9905535 L31.9532214,23.8054503 L31.7364023,24.6578232 L31.5026427,25.5481644 L31.2516243,26.4769662 L30.9830294,27.4447211 L30.6965399,28.4519211 L30.3918377,29.4990587 L30.2767722,29.8447036 C30.1446657,30.218247 29.9618274,30.6680393 29.7317795,31.1270596 C29.0900506,32.4075174 28.3923338,33.2244906 27.2847804,33.2993941 L27.1155294,33.3050292 L15.6095138,33.3050292 C14.3162905,33.3050292 12.9031104,32.793922 12.0843121,31.8131539 C12.0290962,32.0165466 11.9339995,32.2251603 11.7873443,32.4319202 C11.42077,32.9487304 10.8400253,33.2553523 10.142933,33.2994668 L9.96629258,33.3050292 L5.95162726,33.3043263 C5.60109828,33.2946061 5.20893737,33.2148588 4.80423528,32.9904108 C4.14280355,32.6235804 3.70781775,31.9704397 3.65488424,31.2060901 L3.64944579,31.0406625 L2.70244456,15.7121876 L2.7,15.6059567 C2.70489628,15.2938538 2.77370269,14.9226811 2.98277182,14.5242655 C3.33975531,13.8439747 3.99715068,13.3879631 4.84927932,13.330185 L5.03482041,13.3239628 L9.64284456,13.3240713 C10.0206589,13.328333 10.4513176,13.4091459 10.895729,13.6493008 C11.0773349,13.7474386 11.2431921,13.8654192 11.3907132,14.0015571 L11.3895473,13.9988385 L12.0080541,13.5416245 L12.2590944,13.340804 L12.6035658,13.0468106 C12.6465027,13.009123 12.6909056,12.9697872 12.7366865,12.928829 C13.3554327,12.3752636 13.9752325,11.7429511 14.5511394,11.0469756 C16.0724362,9.20850943 16.9955974,7.28883969 17.0763779,5.40236971 L17.0821612,5.1331122 L17.0821612,4.76713079 L17.1393963,4.66732895 L17.1458743,4.57541012 C17.1626287,4.3572456 17.1808588,4.20380806 17.215411,4.04291233 L17.2446174,3.91971422 L17.2813365,3.78695193 C17.6270979,2.60624064 18.6048808,1.86635183 20.0938821,1.80424564 L20.3000851,1.8 Z M11.5644785,15.9085235 C10.7370177,15.9085235 10.0662282,16.579313 10.0662282,17.4067738 L10.0662282,17.4067738 L10.0662282,27.8945257 C10.0662282,28.7219865 10.7370177,29.392776 11.5644785,29.392776 C12.3919393,29.392776 13.0627288,28.7219865 13.0627288,27.8945257 L13.0627288,27.8945257 L13.0627288,17.4067738 C13.0627288,16.579313 12.3919393,15.9085235 11.5644785,15.9085235 Z" id="形状结合"></path>
                    </g>
                </g>
            </g>
        </g>
    </g>
</svg>