<?xml version="1.0" encoding="UTF-8"?>
<svg width="80px" height="80px" viewBox="0 0 80 80" version="1.1" xmlns="http://www.w3.org/2000/svg" xmlns:xlink="http://www.w3.org/1999/xlink">
    <title>图标/课堂/pdf</title>
    <g id="2课堂" stroke="none" stroke-width="1" fill="none" fill-rule="evenodd">
        <g id="2.2.2课程-课中" transform="translate(-203.000000, -550.000000)">
            <g id="编组" transform="translate(0.000000, 110.000000)">
                <g id="组件/列表/讲义备份-3" transform="translate(0.000000, 420.000000)">
                    <g id="图标/课堂/ppt" transform="translate(203.000000, 20.000000)">
                        <g id="编组-22" transform="translate(6.000000, 0.000000)">
                            <path d="M9.41176471,0 L48.2352941,0 L48.2352941,0 L68.2352941,19 L68.2352941,70.5882353 C68.2352941,75.7862094 64.0215035,80 58.8235294,80 L9.41176471,80 C4.21379059,80 -1.1397886e-15,75.7862094 0,70.5882353 L0,9.41176471 C-6.36568236e-16,4.21379059 4.21379059,2.73120919e-15 9.41176471,0 Z" id="矩形备份-15" fill="#FF8C7B"></path>
                            <path d="M33.649744,18.7532388 C38.274569,18.7532388 39.569871,22.3715889 38.3922616,28.9884464 L38.1797568,30.0876359 L37.924711,31.238805 C37.8787034,31.4349655 37.8309571,31.6332673 37.781489,31.8336983 L37.4641538,33.0617354 L37.106307,34.3402837 L36.7087603,35.6687558 L36.48462,36.3744849 C36.8482746,36.9848873 37.229027,37.5870809 37.6224861,38.1741413 L38.2216558,39.0425164 L38.5455595,39.4918785 C39.6217218,40.9628206 40.8325953,42.3510381 42.1124391,43.5959221 L42.2819698,43.7547869 C46.4189281,42.992207 49.8450181,42.8175759 52.2908119,43.3335332 C55.9526863,44.1060312 57.8689994,46.7055035 56.6521649,50.2234858 C54.6466095,56.0217338 47.5965354,54.3929768 40.9109753,48.8399189 L40.1312084,49.016845 L39.1985225,49.2436091 L38.6195806,49.3908308 C36.1013105,50.041613 33.3447662,50.9263175 30.7219047,51.9299797 L29.9967608,52.2169921 L29.3541297,53.4537086 C29.2474813,53.6543345 29.1410583,53.852197 29.0348565,54.0472713 L28.4002643,55.1840584 C27.5575864,56.6546314 26.7285032,57.9435692 25.9107856,59.038126 L25.2995936,59.822398 C22.2539406,63.5595344 19.3602794,64.5183791 16.501059,62.0267916 C13.6270239,59.5222944 14.4763394,56.2996561 17.5533688,53.6497471 C19.5089107,51.9656527 22.5365253,50.2654245 26.2478099,48.6680268 L26.5682106,48.5334303 C27.1402028,47.3533408 27.728284,46.0778031 28.3297512,44.7138952 L29.2416537,42.6026405 C29.3951981,42.2400134 29.5494947,41.8720843 29.7045011,41.4989639 C29.9887737,40.7485721 30.2592251,40.0188727 30.5155273,39.3108918 L31.2416588,37.2531311 L31.3687973,36.8766016 C29.3261285,33.0261781 28.042948,29.200153 27.8451362,26.1487963 C27.5649672,21.8270313 29.5635604,18.7532388 33.649744,18.7532388 Z M22.4258824,55.9058824 L22.2127619,56.0418838 C21.5973827,56.4435767 21.0643128,56.8365814 20.6242287,57.2155777 L20.0055741,57.7575904 L19.7457417,58.0018047 L19.5880101,58.1740449 C19.4943513,58.2927624 19.4892058,58.3559067 19.5279696,58.4119773 L19.5927082,58.4789706 C19.8971059,58.7442294 20.7244263,58.2154361 22.0034269,56.4965258 L22.4258824,55.9058824 Z M48.5379242,47.7514319 L47.9682809,47.7740599 L47.6494118,47.7929412 L47.7924562,47.8729312 C48.3255666,48.1573544 48.8400594,48.3952066 49.3277442,48.5824611 L49.8061895,48.7527005 L50.2649427,48.8883133 C51.6407979,49.2504645 52.0568811,49.1128632 52.2048088,48.6851903 L52.2842103,48.4512016 C52.3507856,48.2279871 52.3073231,48.1620151 51.9561244,48.0751986 L51.319452,47.9380732 C50.5871615,47.7835914 49.6487774,47.721507 48.5379242,47.7514319 Z M34.6,42.0682353 L34.452369,42.5165715 L34.3905882,42.4023529 L34.0780654,43.2344343 L33.5977223,44.3811638 L32.9811765,45.8141176 L33.2179411,45.7163541 L33.0094118,46.1341176 L33.2796415,46.0448222 C33.9090491,45.8426975 34.5364824,45.6496018 35.1577938,45.466832 L36.0846508,45.2005839 L36.6352941,45.0517647 L36.4683049,44.9032838 L36.8047059,44.8352941 L36.0636717,43.9628577 L35.3888728,43.1202149 L34.7379611,42.2572455 L34.6,42.0682353 Z M33.649744,23.4591212 C32.7283497,23.4591212 32.4175224,23.9371669 32.5411612,25.8443649 C32.5948532,26.6725949 32.76884,27.6180635 33.0515302,28.6438161 L33.234096,29.2686061 L33.4305882,29.8776471 L33.655268,28.8852424 L33.8503103,27.9029846 C33.8786926,27.7480485 33.9050553,27.5974681 33.9294626,27.4511965 L34.0529545,26.6248982 C34.1034813,26.2372276 34.1375642,25.8874941 34.1569359,25.574434 L34.1765774,24.9968376 C34.1783327,24.1144259 34.0294626,23.630139 33.7941344,23.4971817 L33.7210063,23.4677876 L33.649744,23.4591212 Z" id="路径-16" fill="#FFFFFF" fill-rule="nonzero"></path>
                            <path d="M48.2352941,-1.13686838e-13 L68.2352941,19 L50.2352941,19 C49.1307246,19 48.2352941,18.1045695 48.2352941,17 L48.2352941,-1.13686838e-13 L48.2352941,-1.13686838e-13 Z" id="路径-13" fill="#FFBBB1"></path>
                        </g>
                    </g>
                </g>
            </g>
        </g>
    </g>
</svg>