<?xml version="1.0" encoding="UTF-8"?>
<svg width="40px" height="40px" viewBox="0 0 40 40" version="1.1" xmlns="http://www.w3.org/2000/svg" xmlns:xlink="http://www.w3.org/1999/xlink">
    <title>临时功能/icon/课中</title>
    <g id="临时功能/icon/课中" stroke="none" stroke-width="1" >
        <g id="编组" >
            <path d="M3.74121378,30.3946338 L17.6065075,34.1093231 C18.1399785,34.2522468 18.6883047,33.9356457 18.8312284,33.4021747 C18.8538411,33.3177715 18.8652938,33.2307684 18.8652938,33.1433885 L18.8652938,9.71495173 C18.8652938,9.26233342 18.5612797,8.86614849 18.12408,8.74901711 L4.25878622,5.03432781 C3.72531526,4.89140412 3.17698906,5.20800524 3.03406538,5.7414762 C3.01145266,5.82587948 3,5.91288252 3,6.00026243 L3,29.4286992 C3,29.8813175 3.30401408,30.2775025 3.74121378,30.3946338 Z M21.1223501,9.71510629 L21.1223501,33.143651 C21.1223501,33.6959357 21.5700653,34.143651 22.1223501,34.143651 C22.2096649,34.143651 22.2966036,34.1322154 22.3809484,34.1096359 L36.2585983,30.3945296 C36.6958906,30.2774646 37,29.8812353 37,29.4285447 L37,6 C37,5.44771525 36.5522847,5 36,5 C35.9126852,5 35.8257465,5.0114356 35.7414017,5.03401505 L21.8637518,8.74912134 C21.4264595,8.86618637 21.1223501,9.26241566 21.1223501,9.71510629 Z" id="形状"></path>
        </g>
    </g>
</svg>