<?xml version="1.0" encoding="UTF-8"?>
<svg width="80px" height="80px" viewBox="0 0 80 80" version="1.1" xmlns="http://www.w3.org/2000/svg" xmlns:xlink="http://www.w3.org/1999/xlink">
    <title>图标/课堂/视频</title>
    <g id="2课堂" stroke="none" stroke-width="1" fill="none" fill-rule="evenodd">
        <g id="2.2.2课程-课中" transform="translate(-203.000000, -270.000000)">
            <g id="编组" transform="translate(0.000000, 110.000000)">
                <g id="组件/列表/讲义备份" transform="translate(0.000000, 140.000000)">
                    <g id="图标/课堂/ppt" transform="translate(203.000000, 20.000000)">
                        <g id="编组-25" transform="translate(0.000000, 8.000000)">
                            <path d="M58.8933303,19.7151954 C63.3632357,16.9132337 67.8331411,14.1112721 72.3030465,11.3093104 C74.4628018,9.95546712 77.3111361,10.6087878 78.6649794,12.7685431 C79.1255186,13.5032307 79.3697812,14.3527933 79.3697812,15.2198932 L79.3697812,47.9084856 C79.3697812,50.4574922 77.3034032,52.5238702 74.7543966,52.5238702 C73.7514105,52.5238702 72.7757216,52.1971453 71.9749951,51.5931433 L58.8933303,41.7254155 L58.8933303,41.7254155 C58.8933303,27.0519354 58.8933303,19.7151954 58.8933303,19.7151954 Z" id="路径-40" fill="#FFA799"></path>
                            <rect id="矩形" fill="#FF8C7B" x="0" y="0" width="64.6153846" height="63.0769231" rx="10.7692308"></rect>
                            <path d="M24.4066762,21.135312 L24.4066762,41.3589973 C24.4066762,43.058335 25.7842616,44.4359203 27.4835993,44.4359203 C28.0952776,44.4359203 28.6930756,44.2536083 29.2006538,43.9122657 L43.8618382,34.0527253 C45.2719693,33.1044223 45.6463551,31.1925336 44.698052,29.7824024 C44.4894725,29.4722437 44.2261272,29.2026835 43.9209172,28.9869273 L29.2597328,18.6227823 C27.872101,17.6418508 25.9520011,17.9715466 24.9710696,19.3591784 C24.6038543,19.8786435 24.4066762,20.4991586 24.4066762,21.135312 Z" id="路径-41" fill="#FFFFFF"></path>
                        </g>
                    </g>
                </g>
            </g>
        </g>
    </g>
</svg>