<?xml version="1.0" encoding="UTF-8"?>
<svg width="44px" height="44px" viewBox="0 0 44 44" version="1.1" xmlns="http://www.w3.org/2000/svg" xmlns:xlink="http://www.w3.org/1999/xlink">
    <title>icon/批注</title>
    <g id="2课堂" stroke="none" stroke-width="1" fill="none" fill-rule="evenodd">
        <g id="2.5.2.3任务-微课+心得1" transform="translate(-840.000000, -1264.000000)">
            <g id="编组-10" transform="translate(511.000000, 148.000000)">
                <g id="编组-11" transform="translate(39.000000, 1088.000000)">
                    <g id="编组-2" transform="translate(290.000000, 28.000000)">
                        <rect id="矩形" fill-opacity="0" fill="#D8D8D8" x="0" y="0" width="44" height="44"></rect>
                        <g id="编组" transform="translate(5.000000, 5.000000)" stroke="#666666" stroke-width="3">
                            <path d="M29.5862069,26.2728869 L29.5862069,30 C29.5862069,31.6568542 28.2430611,33 26.5862069,33 L3,33 C1.34314575,33 4.05009359e-13,31.6568542 4.05009359e-13,30 L4.05009359e-13,3 C4.05009359e-13,1.34314575 1.34314575,0 3,0 L26.5862069,0 C28.2430611,0 29.5862069,1.34314575 29.5862069,3 L29.5862069,5.17853372 L29.5862069,5.17853372" id="路径" stroke-linecap="round"></path>
                            <path d="M17.6287162,14.8427262 L35.4513275,14.8427262 C35.7493421,14.8427262 36.0318277,14.9756437 36.221803,15.2052566 L38.6287162,18.1143635 L38.6287162,18.1143635 L36.2152213,20.5470302 C36.0274626,20.7362803 35.7719103,20.8427262 35.5053227,20.8427262 L17.6287162,20.8427262 C17.0764315,20.8427262 16.6287162,20.395011 16.6287162,19.8427262 L16.6287162,15.8427262 C16.6287162,15.2904415 17.0764315,14.8427262 17.6287162,14.8427262 Z" id="矩形" transform="translate(27.628716, 17.842726) rotate(-233.000000) translate(-27.628716, -17.842726) "></path>
                            <line x1="5.25862069" y1="14.637931" x2="21.1896552" y2="14.637931" id="直线-3" stroke-linecap="round" stroke-linejoin="round"></line>
                            <line x1="5.25862069" y1="22.0344828" x2="15.5" y2="22.0344828" id="直线-3备份" stroke-linecap="round" stroke-linejoin="round"></line>
                            <line x1="5.25862069" y1="7.03448276" x2="15.5" y2="7.03448276" id="直线-3备份-2" stroke-linecap="round" stroke-linejoin="round"></line>
                        </g>
                    </g>
                </g>
            </g>
        </g>
    </g>
</svg>