<?xml version="1.0" encoding="UTF-8"?>
<svg width="40px" height="40px" viewBox="0 0 40 40" version="1.1" xmlns="http://www.w3.org/2000/svg" xmlns:xlink="http://www.w3.org/1999/xlink">
    <title>临时功能/icon/任务</title>
    <g id="临时功能/icon/任务" stroke="none" stroke-width="1"  fill-rule="evenodd">
        <g id="编组" >
            <path d="M7,5.32264462 C9.19424979,3.77421487 11.8838729,3 15.0688692,3 C19.8463638,3 22.1754476,5.46995533 26.0856526,5.46995533 C28.6924559,5.46995533 30.9415366,4.80349608 32.8328945,3.47057759 L32.8328945,23.6443413 C30.7650959,25.394952 28.5160153,25.9275418 26.0856526,25.2421109 C22.4401086,24.2139644 18.3652974,22.142133 15.0688692,22.142133 C13.6949995,22.142133 12.1288404,22.5032561 10.370392,23.2255021 L10.369508,35.5 C10.369508,36.3284271 9.6979351,37 8.86950798,37 L8.5,37 C7.67157288,37 7,36.3284271 7,35.5 L7,5.32264462 Z" id="形状结合"></path>
        </g>
    </g>
</svg>