<?xml version="1.0" encoding="UTF-8"?>
<svg width="445px" height="240px" viewBox="0 0 445 240" version="1.1" xmlns="http://www.w3.org/2000/svg" xmlns:xlink="http://www.w3.org/1999/xlink">
    <title>空白符/无学生</title>
    <defs>
        <linearGradient x1="50%" y1="4.3016369%" x2="50%" y2="95.1965882%" id="linearGradient-1">
            <stop stop-color="#ADE8C1" offset="0%"></stop>
            <stop stop-color="#22AD7E" offset="99.9815245%"></stop>
        </linearGradient>
        <linearGradient x1="-47.0190124%" y1="-185.963888%" x2="68.8688465%" y2="100%" id="linearGradient-2">
            <stop stop-color="#D2D2D2" offset="0%"></stop>
            <stop stop-color="#D2D2D2" stop-opacity="0" offset="100%"></stop>
        </linearGradient>
        <linearGradient x1="118.999979%" y1="-110.864112%" x2="54.5018665%" y2="55.5871768%" id="linearGradient-3">
            <stop stop-color="#D2D2D2" offset="0%"></stop>
            <stop stop-color="#D2D2D2" stop-opacity="0" offset="100%"></stop>
        </linearGradient>
        <linearGradient x1="50%" y1="-221.156912%" x2="50%" y2="100%" id="linearGradient-4">
            <stop stop-color="#D2D2D2" offset="0%"></stop>
            <stop stop-color="#D2D2D2" stop-opacity="0" offset="100%"></stop>
        </linearGradient>
        <linearGradient x1="100.080959%" y1="-97.780461%" x2="38.826306%" y2="104.736078%" id="linearGradient-5">
            <stop stop-color="#D2D2D2" offset="0%"></stop>
            <stop stop-color="#D2D2D2" stop-opacity="0" offset="100%"></stop>
        </linearGradient>
        <linearGradient x1="50%" y1="-230.116303%" x2="50%" y2="100%" id="linearGradient-6">
            <stop stop-color="#D2D2D2" offset="0%"></stop>
            <stop stop-color="#D2D2D2" stop-opacity="0" offset="100%"></stop>
        </linearGradient>
        <linearGradient x1="50%" y1="-169.203289%" x2="50%" y2="100%" id="linearGradient-7">
            <stop stop-color="#D2D2D2" offset="0%"></stop>
            <stop stop-color="#D2D2D2" stop-opacity="0" offset="100%"></stop>
        </linearGradient>
        <linearGradient x1="43.9432308%" y1="33.2542101%" x2="52.1102054%" y2="70.41963%" id="linearGradient-8">
            <stop stop-color="#FFFFFF" offset="0%"></stop>
            <stop stop-color="#C5C5C5" offset="100%"></stop>
        </linearGradient>
        <linearGradient x1="47.5443092%" y1="19.739731%" x2="64.5944716%" y2="191.514374%" id="linearGradient-9">
            <stop stop-color="#FFFFFF" offset="0%"></stop>
            <stop stop-color="#C5C5C5" offset="100%"></stop>
        </linearGradient>
        <linearGradient x1="17.6197038%" y1="-4.99483293%" x2="84.7227007%" y2="108.939029%" id="linearGradient-10">
            <stop stop-color="#DFF6E2" offset="0%"></stop>
            <stop stop-color="#22AD7E" offset="100%"></stop>
        </linearGradient>
    </defs>
    <g id="2课堂" stroke="none" stroke-width="1" fill="none" fill-rule="evenodd">
        <g id="2.5.2.2任务-微课+心得统计空" transform="translate(-1059.000000, -423.000000)" fill-rule="nonzero">
            <g id="编组-3" transform="translate(1059.000000, 423.000000)">
                <g id="编组-10" transform="translate(227.200000, 140.000000)">
                    <path d="M36.4,0 C56.5031649,0 72.8,14.0430816 72.8,31.3661007 C72.8,46.2561502 60.7593922,58.7228806 44.6104512,61.9310023 L37.2150216,71.4951951 C37.1456783,71.5848788 37.064742,71.6651313 36.9742945,71.7338892 C36.4045088,72.1670348 35.5884806,72.0601678 35.1516451,71.4951951 L27.6751293,61.8253889 C11.7855734,58.4571328 0,46.0976122 0,31.3661007 C0,14.0430816 16.2968351,0 36.4,0 Z" id="形状结合" fill="url(#linearGradient-1)"></path>
                    <ellipse id="椭圆形" fill="#FFFFFF" cx="36.4" cy="30.4" rx="5.2" ry="4.8"></ellipse>
                    <ellipse id="椭圆形备份-4" fill="#FFFFFF" cx="21.2" cy="30.4" rx="5.2" ry="4.8"></ellipse>
                    <ellipse id="椭圆形备份-6" fill="#FFFFFF" cx="52.4" cy="30.4" rx="5.2" ry="4.8"></ellipse>
                </g>
                <g id="暂无用户">
                    <g id="编组-2备份-10">
                        <path d="M87.9111112,191.464898 C78.4148148,187.168602 68.1185185,175.642676 71.0370371,164.798231 C72.4967831,164.424618 74.0326224,165.019904 74.8592592,166.279712 C74.8592592,166.279712 91.3333333,192.013046 86.7111112,168.338972 C84.5333333,157.213046 80.7851852,146.457491 80.4888889,134.961194 C80,114.072305 99.1703704,108.279713 104.681481,131.361194 C105.407407,134.413046 108.192593,159.227861 114.533333,156.383417 C115.35004,155.953868 116.012794,155.280758 116.42963,154.457491 C119.644444,149.183417 120.607408,141.435269 126.503704,139.642676 C131.674074,138.013046 136.770371,142.501936 139.555555,147.138972 C145.2,156.561194 152.755555,179.983416 141.2,187.924157 C129.644444,195.864898 100.488889,197.124157 88.0148148,191.568601 L87.9111112,191.464898 Z" id="路径" fill="url(#linearGradient-2)"></path>
                        <path d="M327.822222,216.51675 C323.644445,206.961194 323.748148,191.509343 333.22963,185.405639 C334.569656,186.125893 335.293391,187.627192 335.022222,189.124157 C335.022222,189.124157 329.970371,219.272305 342.42963,198.605639 C348.355555,188.872306 352.8,178.398232 360.207408,169.672306 C373.822223,153.761195 391.97037,162.398231 380.577778,183.213046 C379.096296,185.968602 364.488889,206.235269 371.096297,208.398232 C371.990826,208.618218 372.931069,208.56139 373.792592,208.235268 C379.718519,206.48712 385.644444,201.390824 391.244444,203.968602 C396.162962,206.235269 396.933334,212.961194 395.896296,218.279713 C393.762962,229.050083 383.306065,241.094544 369.409769,239.227877 C355.217177,237.301951 333.333334,229.109342 327.866666,216.620454 L327.822222,216.51675 Z" id="路径" fill="url(#linearGradient-3)"></path>
                        <path d="M444.622223,239.227861 C388.755556,200.901935 309.807408,177.005639 222.311111,177.005639 C134.814815,177.005639 55.8666667,200.901935 0,239.227861 L444.622223,239.227861 Z" id="路径" fill="url(#linearGradient-4)"></path>
                        <path d="M352.162963,123.672306 C348.622223,128.11675 346.355556,134.413046 348.474074,140.042676 C349.940741,143.924158 354.355555,143.953787 354.044444,149.346379 C353.739822,152.039003 352.817047,154.6248 351.348148,156.901936 C348.845101,161.280029 345.776784,165.309685 342.222222,168.88712 C345.185166,171.198314 346.692467,174.912937 346.177777,178.635269 C345.596677,182.329939 343.846928,185.741171 341.185186,188.368602 C340.401455,189.326981 339.379698,190.062647 338.222222,190.501936 C337.101178,190.760867 335.93586,190.760867 334.814815,190.501936 C329.302874,189.566449 323.951051,187.855661 318.918518,185.420454 C315.777778,183.924157 312.577777,181.879712 311.511112,178.620454 C310.288889,174.879713 312.232176,173.691055 314.353415,172.519036 L314.900916,172.216429 C315.99624,171.605563 317.0709,170.941618 317.718518,169.879712 C319.274074,167.331565 319.318518,163.924157 319.866667,161.079713 C320.666666,156.88712 319.481482,149.242676 324.725926,147.598231 C326.755555,146.961194 328.962962,147.109343 330.992592,146.457491 C335.401646,145.054199 337.226932,140.90669 338.994125,136.713077 L339.315354,135.950694 C340.334116,133.538677 341.384362,131.165584 342.948148,129.34638 C345.17037,126.753787 350.681482,125.479712 352.162963,123.672306 Z M339.362963,148.54638 C339.362963,148.54638 323.407408,167.153786 323.925926,184.353787 L329.081482,184.353787 C329.081482,184.353787 330.948148,163.613046 339.362963,148.54638 Z" id="形状结合" fill="url(#linearGradient-5)"></path>
                        <path d="M124.962962,26.4130462 L124.962962,26.4130462 C125.045377,20.670249 120.943466,15.7184236 115.285663,14.7306116 C109.62786,13.7427997 104.090668,17.0117071 102.222222,22.4426758 C98.6575158,22.3727999 95.3390413,24.254611 93.5690582,27.3496351 C91.7990753,30.4446593 91.8599899,34.259076 93.7278977,37.2960046 C95.5958054,40.3329331 98.9726759,42.1078223 102.533333,41.9241572 L124,41.9241572 C128.075839,41.8697904 131.421112,38.6834785 131.673684,34.615109 C131.926258,30.5467396 129.00078,26.9711262 124.962962,26.4130462 L124.962962,26.4130462 Z" id="路径" fill="url(#linearGradient-6)"></path>
                        <path d="M213.688889,14.6500832 L213.688889,14.5760092 C213.680159,7.47785825 208.565104,1.41558526 201.569647,0.212498465 C194.574192,-0.990588322 187.727735,3.01452968 185.348148,9.70193507 C178.618456,9.80830103 173.24919,15.3500209 173.355556,22.0797128 C173.461921,28.8094048 179.003641,34.1786714 185.733334,34.0723055 L212.4,34.0723055 C217.537771,34.0814614 221.79506,30.0900348 222.116767,24.962337 C222.438474,19.8346392 218.713442,15.3424091 213.614815,14.7093425 L213.688889,14.6500832 Z" id="路径" fill="url(#linearGradient-7)"></path>
                    </g>
                    <path d="M203.051852,142.548148 C203.051852,142.548148 153.792593,143.140741 157.940741,201.614815 L265.985185,201.614815 C265.985185,201.614815 276.074074,148.192592 221.155555,142.548148 L203.051852,142.548148 Z" id="路径" fill="url(#linearGradient-8)"></path>
                    <path d="M175.585186,97.4370371 C175.585186,97.4370371 166.385185,109.007407 180.325926,113.466667 C180.325926,113.466667 180.918518,131.244444 203.481481,139.288889 C203.481481,139.288889 205.25926,144.044444 201.111112,146.696297 C201.111112,146.696297 214.829629,158.548148 227.259259,144.622223 C227.259259,144.622223 220.696296,141.940741 223.362962,138.088889 C223.362962,138.088889 239.096297,136.311112 245.037037,113.451852 C245.037037,113.451852 256.888889,107.525926 249.185185,98.9037037 L212.148148,67.7925926 L175.585186,97.4370371 Z" id="路径" fill="url(#linearGradient-9)"></path>
                    <path d="M226.296296,54.1333333 C226.296296,54.1333333 167.792592,40.4888888 174.014815,96.8740741 C174.014815,96.8740741 189.022223,99.8370371 199.925926,80.2518518 C199.925926,80.2518518 199.244444,91.5259259 246.740741,98.3555556 L249.703704,99.8370371 C249.703704,99.8370371 258.681481,66 226.296296,54.1333333 Z" id="路径" fill="#E5E5E5"></path>
                    <circle id="椭圆形" fill="url(#linearGradient-10)" cx="255.274074" cy="177.392592" r="43.0074074"></circle>
                    <path d="M268.933333,153.17037 C272.186201,156.094319 273.949232,160.327771 273.733333,164.696297 C273.857165,168.216883 272.815648,171.679925 270.77037,174.548148 C270.044444,175.348148 267.733333,177.511111 263.881482,180.859259 C262.551115,181.95837 261.461754,183.320072 260.681482,184.85926 C259.873268,186.472363 259.461863,188.255118 259.481482,190.059259 L259.481482,191.185186 L250.281481,191.185186 L250.281481,190.059259 C250.185905,187.357006 250.734325,184.670761 251.881482,182.222222 C252.918518,180.05926 256.044444,176.696297 261.244445,172.059259 L262.207408,170.948148 C263.575354,169.36545 264.341266,167.350996 264.37037,165.259259 C264.590575,162.918001 263.743764,160.602204 262.065205,158.955262 C260.386646,157.308319 258.055166,156.505691 255.718518,156.77037 C252.207408,156.77037 249.792593,157.822223 248.207407,160.059259 C246.725801,162.393101 246.025336,165.137886 246.207408,167.896296 L237.081481,167.896296 C237.081481,161.970371 238.755556,157.333333 242.281482,153.97037 C245.807407,150.607408 250.355556,148.933333 256.281481,148.933333 C260.882563,148.696883 265.402638,150.210631 268.933333,153.17037 L268.933333,153.17037 Z M259.318518,196.785185 C261.715805,199.19987 261.715805,203.096426 259.318518,205.511111 C258.121969,206.643352 256.520257,207.246662 254.874074,207.185185 C253.219626,207.213592 251.621392,206.584952 250.42963,205.437037 C248.080961,203.031271 248.080961,199.190951 250.42963,196.785185 C251.62975,195.658666 253.228982,195.056287 254.874074,195.111112 C256.516223,195.073844 258.109028,195.673801 259.318518,196.785185 Z" id="形状" fill="#FFFFFF"></path>
                </g>
            </g>
        </g>
    </g>
</svg>