<?xml version="1.0" encoding="UTF-8"?>
<svg width="80px" height="80px" viewBox="0 0 80 80" version="1.1" xmlns="http://www.w3.org/2000/svg" xmlns:xlink="http://www.w3.org/1999/xlink">
    <title>图标/课堂/tupian</title>
    <g id="2课堂" stroke="none" stroke-width="1" fill="none" fill-rule="evenodd">
        <g id="2.3.2课中-ppt" transform="translate(-203.000000, -690.000000)">
            <g id="组件/列表/讲义备份-4" transform="translate(0.000000, 670.000000)">
                <g id="图标/课堂/ppt" transform="translate(203.000000, 20.000000)">
                    <g id="编组-21" transform="translate(6.000000, 0.000000)">
                        <path d="M9.41176471,0 L48.2352941,0 L48.2352941,0 L68.2352941,19 L68.2352941,70.5882353 C68.2352941,75.7862094 64.0215035,80 58.8235294,80 L9.41176471,80 C4.21379059,80 -1.1397886e-15,75.7862094 0,70.5882353 L0,9.41176471 C-6.36568236e-16,4.21379059 4.21379059,2.73120919e-15 9.41176471,0 Z" id="矩形备份-12" fill="#6CABFF"></path>
                        <path d="M15.280272,56.5131877 L53.7997047,56.5131877 C56.3986917,56.5131877 58.505587,54.4062924 58.505587,51.8073054 C58.505587,50.9778064 58.2863299,50.1630453 57.8700311,49.4455748 L46.8033406,30.3726776 C45.4989928,28.1246984 42.6192628,27.3597339 40.3712836,28.6640817 C39.6926032,29.0578732 39.1231618,29.6151175 38.71477,30.2851137 L31.1747335,42.655087 C30.8365565,43.2098907 30.1126526,43.3855014 29.5578489,43.0473244 C29.3990745,42.9505445 29.2655015,42.8175078 29.1680835,42.6591242 L26.0977245,37.6672865 C24.7442107,35.4667227 21.8630615,34.7800529 19.6624976,36.1335667 C19.0107018,36.5344706 18.4672087,37.089153 18.0796689,37.7489823 L11.2225126,49.4240476 C9.90627568,51.6650862 10.6559756,54.5488278 12.8970142,55.8650647 C13.6195606,56.2894404 14.4423173,56.5131877 15.280272,56.5131877 Z" id="路径-15" fill="#FFFFFF"></path>
                        <path d="M48.2352941,-1.13686838e-13 L68.2352941,19 L50.2352941,19 C49.1307246,19 48.2352941,18.1045695 48.2352941,17 L48.2352941,-1.13686838e-13 L48.2352941,-1.13686838e-13 Z" id="路径-13" fill="#A6CCFF"></path>
                    </g>
                </g>
            </g>
        </g>
    </g>
</svg>