<?xml version="1.0" encoding="UTF-8"?>
<svg width="36px" height="36px" viewBox="0 0 36 36" version="1.1" xmlns="http://www.w3.org/2000/svg" xmlns:xlink="http://www.w3.org/1999/xlink">
    <title>切片</title>
    <defs>
       
    </defs>
    <g id="2课堂" stroke="none" stroke-width="1" >
        <g id="2.8.2课堂-分层情况" transform="translate(-1667.000000, -883.000000)">
            <g id="临时功能/右边组件" transform="translate(1640.000000, 871.000000)">
                <g id="编组" transform="translate(27.000000, 12.000000)" >
                    <g transform="translate(3.600000, 3.600000)">
                        <path d="M24.1403304,8.18576932 L20.6087578,4.65996706 C19.984188,4.03202573 19.984188,3.01745992 20.6087578,2.38951858 L22.5307054,0.473452249 C22.83075,0.170464605 23.2394564,0 23.6658557,0 C24.092255,0 24.5009613,0.170464605 24.801006,0.473452249 L28.3265786,3.99925453 C28.6295465,4.29931873 28.8,4.70805172 28.8,5.13447878 C28.8,5.56090583 28.6295465,5.96963882 28.3265786,6.26970302 L26.4406675,8.18576932 C26.1406229,8.48875697 25.7319165,8.65922157 25.3055172,8.65922157 C24.8791179,8.65922157 24.4704116,8.48875697 24.1703669,8.18576932 L24.1403304,8.18576932 Z M22.0682367,12.5164396 C22.6688453,11.9157919 22.8250036,11.0808915 22.4045776,10.6664445 L18.1102259,6.37181314 C17.6958059,5.9573662 16.8729721,6.10752813 16.2663574,6.70817586 L0.542423565,22.0186869 C0.248781816,22.3062973 0.06228998,22.6856634 0.0138879841,23.0938464 L0.0138879841,27.3944843 C-0.0440684045,27.7725147 0.0814278282,28.1555538 0.351841739,28.4259854 C0.62225565,28.6964169 1.0052698,28.8219213 1.38327565,28.7639611 L5.68363342,28.8 C6.09256905,28.7499649 6.47200938,28.5612923 6.75872284,28.2654235 L22.0682367,12.5164396 Z M27.1313674,24.6675435 L15.9180044,24.6675435 C15.489769,24.6682178 15.0793189,24.8388897 14.776848,25.1420552 C14.224288,25.6946512 13.317369,26.6316616 12.5606022,27.4185102 C12.3360317,27.6526787 12.2753918,27.999424 12.4071583,28.2959179 C12.5389248,28.5924119 12.836921,28.7797529 13.1612108,28.7699676 L27.1253614,28.7699676 C28.028575,28.7666589 28.7590168,28.0334778 28.7590168,27.1301993 L28.7590168,26.2892924 C28.7524401,25.3940225 28.0265973,24.6708109 27.1313674,24.6675435 L27.1313674,24.6675435 Z" id="形状" ></path>
                    </g>
                </g>
            </g>
        </g>
    </g>
</svg>