<?xml version="1.0" encoding="UTF-8"?>
<svg width="40px" height="40px" viewBox="0 0 40 40" version="1.1" xmlns="http://www.w3.org/2000/svg" xmlns:xlink="http://www.w3.org/1999/xlink">
    <title>临时功能/icon/试卷</title>
    <g id="临时功能/icon/试卷" stroke="none" stroke-width="1"  >
        <g id="编组" >
            <path d="M31.56,4 C34.4911503,4 36.8808533,6.3182115 36.9956804,9.22120603 L37,9.44 L31.56,9.44 L31.56,31.28 C31.56,33.489139 29.769139,35.28 27.56,35.28 L8.44,35.28 L8.22120603,35.2756804 C5.39264726,35.1637975 3.11926711,32.8922035 3.00454319,30.0643759 L3,29.84 L8.439,29.84 L8.44,9.44 C8.44,6.43557096 10.875571,4 13.88,4 L31.56,4 Z M26.12,17.6 L13.88,17.6 C13.1288927,17.6 12.52,18.2088927 12.52,18.96 C12.52,19.7111073 13.1288927,20.32 13.88,20.32 L13.88,20.32 L26.12,20.32 C26.8711073,20.32 27.48,19.7111073 27.48,18.96 C27.48,18.2088927 26.8711073,17.6 26.12,17.6 L26.12,17.6 Z M26.12,12.16 L13.88,12.16 C13.1288927,12.16 12.52,12.7688927 12.52,13.52 C12.52,14.2711073 13.1288927,14.88 13.88,14.88 L13.88,14.88 L26.12,14.88 C26.8711073,14.88 27.48,14.2711073 27.48,13.52 C27.48,12.7688927 26.8711073,12.16 26.12,12.16 L26.12,12.16 Z" id="形状结合"></path>
        </g>
    </g>
</svg>