<?xml version="1.0" encoding="UTF-8"?>
<svg width="80px" height="80px" viewBox="0 0 80 80" version="1.1" xmlns="http://www.w3.org/2000/svg" xmlns:xlink="http://www.w3.org/1999/xlink">
    <title>图标/课堂/ppt</title>
    <g id="2课堂" stroke="none" stroke-width="1" fill="none" fill-rule="evenodd">
        <g id="2.2.2课程-课中" transform="translate(-203.000000, -131.000000)">
            <g id="编组" transform="translate(0.000000, 110.000000)">
                <g id="图标/课堂/ppt" transform="translate(203.000000, 20.000000)">
                    <g id="编组-17" transform="translate(6.000000, 0.000000)">
                        <path d="M9.41176471,0 L48.2352941,0 L48.2352941,0 L68.2352941,19 L68.2352941,70.5882353 C68.2352941,75.7862094 64.0215035,80 58.8235294,80 L9.41176471,80 C4.21379059,80 6.36568236e-16,75.7862094 0,70.5882353 L0,9.41176471 C-6.36568236e-16,4.21379059 4.21379059,9.54852354e-16 9.41176471,0 Z" id="矩形" fill="#FFC76F"></path>
                        <path d="M37.6470588,21.3647059 C44.7942732,21.3647059 50.5882353,27.1586679 50.5882353,34.3058824 C50.5882353,41.2787745 45.0734588,46.9636215 38.1675462,47.236783 L37.6470588,47.2470588 L25.8815294,47.2467059 L25.8823529,57.6470588 C25.8823529,59.5962991 24.3021815,61.1764706 22.3529412,61.1764706 C20.5183621,61.1764706 19.010709,59.7767339 18.8396861,57.9869647 L18.8235294,57.6470588 L18.8235294,24.7058824 C18.8235294,23.1712781 19.8029432,21.9971823 21.1707892,21.567121 C21.4382457,21.4725095 21.720428,21.4088229 22.0130353,21.3808625 L22.3529412,21.3647059 L37.6470588,21.3647059 Z M25.8815294,40.1877059 L37.6470588,40.1882353 C40.8957926,40.1882353 43.5294118,37.5546162 43.5294118,34.3058824 C43.5294118,31.1870979 41.1022684,28.6352031 38.0338251,28.4360416 L37.6470588,28.4235294 L25.8815294,28.4227059 L25.8815294,40.1877059 Z" id="形状结合" fill="#FFFFFF" fill-rule="nonzero"></path>
                        <path d="M48.2352941,-1.13686838e-13 L68.2352941,19 L50.2352941,19 C49.1307246,19 48.2352941,18.1045695 48.2352941,17 L48.2352941,-1.13686838e-13 L48.2352941,-1.13686838e-13 Z" id="路径-13" fill="#FFDBA3"></path>
                    </g>
                </g>
            </g>
        </g>
    </g>
</svg>