<?xml version="1.0" encoding="UTF-8"?>
<svg width="40px" height="40px" viewBox="0 0 40 40" version="1.1" xmlns="http://www.w3.org/2000/svg" xmlns:xlink="http://www.w3.org/1999/xlink">
    <title>临时功能/icon/分层</title>
    <defs>
        <filter id="filter-1">
            <feColorMatrix in="SourceGraphic" type="matrix" values="0 0 0 0 1.000000 0 0 0 0 1.000000 0 0 0 0 1.000000 0 0 0 1.000000 0"></feColorMatrix>
        </filter>
    </defs>
    <g id="控件" stroke="none" stroke-width="1" >
        <g id="编组-2" >
            <g transform="translate(3.220000, 3.220000)">
                <g id="编组" transform="translate(0.780000, 0.780000)" >
                    <path d="M0.538103673,20.8472357 C0.753839903,20.8472357 0.956811302,20.9018885 1.1339279,20.998104 L1.19881421,21.0366293 L15.518,29.968 L29.8399197,21.0366126 C30.3866347,20.6956334 31.094726,20.8285645 31.4837391,21.3240535 L31.5620401,21.4357385 C31.9030192,21.9824534 31.7700882,22.6905448 31.2745991,23.0795579 L31.1629141,23.1578589 L16.7413751,32.1522131 C16.0430863,32.5728482 15.1819654,32.6028935 14.4471785,32.2342354 L14.2799866,32.1420791 L-0.124233985,23.1578421 C-1.15356204,22.515827 -0.749837781,20.9595635 0.410143405,20.8529984 L0.538103673,20.8472357 Z" id="路径"></path>
                    <path d="M29.8399197,14.6786361 C30.4256857,14.3133013 31.1967053,14.4919961 31.5620401,15.0777621 C31.9030192,15.624477 31.7700882,16.3325683 31.2745991,16.7215814 L31.1629141,16.7998824 L16.7413751,25.7942367 C16.0430863,26.2148717 15.1819654,26.2449171 14.447157,25.8762455 L14.2799597,25.7840859 L-0.123447325,16.7998488 C-0.709194781,16.4344843 -0.887850444,15.6634557 -0.522485917,15.0777083 C-0.181479024,14.5310106 0.512906352,14.3389352 1.08020986,14.6128098 L1.19965467,14.6786697 L15.518,23.61 L29.8399197,14.6786361 Z" id="路径"></path>
                    <path d="M14.9415107,20.0635948 C15.296733,20.2775735 15.7411605,20.2775735 16.0963828,20.0635948 L30.5014169,11.0793577 C30.7545776,10.9241592 30.9350922,10.6718121 31.0045319,10.3785956 C31.0739238,10.0845655 31.0257802,9.77584344 30.8697681,9.51938066 C30.7728158,9.37051527 30.6476831,9.24204984 30.5014169,9.1412189 L16.0963828,0.160236096 C15.7410687,-0.053412032 15.2968248,-0.053412032 14.9415107,0.160236096 L0.538151529,9.13954393 C0.284942993,9.29474243 0.101987741,9.54632385 0.0317344559,9.83954039 C-0.0385188292,10.1335705 0.00885906743,10.4439675 0.164057571,10.7003824 C0.253285972,10.8573705 0.382297111,10.9880818 0.538103673,11.0793577 L14.9415107,20.0635948 Z" id="路径"></path>
                </g>
            </g>
        </g>
    </g>
</svg>