<?xml version="1.0" encoding="UTF-8"?>
<svg width="80px" height="80px" viewBox="0 0 80 80" version="1.1" xmlns="http://www.w3.org/2000/svg" xmlns:xlink="http://www.w3.org/1999/xlink">
    <title>图标/课堂/word</title>
    <g id="2课堂" stroke="none" stroke-width="1" fill="none" fill-rule="evenodd">
        <g id="2.2.2课程-课中" transform="translate(-203.000000, -830.000000)">
            <g id="编组" transform="translate(0.000000, 110.000000)">
                <g id="组件/列表/讲义备份-5" transform="translate(0.000000, 700.000000)">
                    <g id="图标/课堂/ppt" transform="translate(203.000000, 20.000000)">
                        <g id="编组-15" transform="translate(6.000000, 0.000000)">
                            <path d="M9.41176471,0 L48.2352941,0 L48.2352941,0 L68.2352941,19 L68.2352941,70.5882353 C68.2352941,75.7862094 64.0215035,80 58.8235294,80 L9.41176471,80 C4.21379059,80 -1.1397886e-15,75.7862094 0,70.5882353 L0,9.41176471 C-6.36568236e-16,4.21379059 4.21379059,2.73120919e-15 9.41176471,0 Z" id="矩形备份-16" fill="#6CABFF"></path>
                            <path d="M48.2460207,22.3529412 C50.0805998,22.3529412 51.5882529,23.7526778 51.7592759,25.542447 L51.7754325,25.8823529 L51.7754325,51.8217561 C51.7754325,55.0813685 47.7779819,56.5483818 45.6563804,54.221861 L45.4506906,53.9764897 L33.8470588,38.9223529 L21.5629735,54.0471085 C19.537563,56.5404209 15.5700486,55.239088 15.3077981,52.1478428 L15.2941176,51.8217561 L15.2941176,25.8823529 C15.2941176,23.9331126 16.8742891,22.3529412 18.8235294,22.3529412 C20.6581085,22.3529412 22.1657616,23.7526778 22.3367845,25.542447 L22.3529412,25.8823529 L22.3529412,41.8752941 L31.1809964,31.0118671 C32.5411675,29.337475 35.043979,29.2803694 36.4856886,30.8124324 L36.7157706,31.0824859 L44.7152941,41.4611765 L44.716609,25.8823529 C44.716609,24.0477738 46.1163456,22.5401208 47.9061148,22.3690978 L48.2460207,22.3529412 Z" id="路径-17" fill="#FFFFFF" fill-rule="nonzero"></path>
                            <path d="M48.2352941,-1.13686838e-13 L68.2352941,19 L50.2352941,19 C49.1307246,19 48.2352941,18.1045695 48.2352941,17 L48.2352941,-1.13686838e-13 L48.2352941,-1.13686838e-13 Z" id="路径-13" fill="#A6CCFF"></path>
                        </g>
                    </g>
                </g>
            </g>
        </g>
    </g>
</svg>