<?xml version="1.0" encoding="UTF-8"?>
<svg width="556px" height="300px" viewBox="0 0 556 300" version="1.1" xmlns="http://www.w3.org/2000/svg" xmlns:xlink="http://www.w3.org/1999/xlink">
    <title>空白符/空数据</title>
    <defs>
        <linearGradient x1="-47.0190124%" y1="-185.963888%" x2="68.8688465%" y2="100%" id="linearGradient-1">
            <stop stop-color="#D2D2D2" offset="0%"></stop>
            <stop stop-color="#D2D2D2" stop-opacity="0" offset="100%"></stop>
        </linearGradient>
        <linearGradient x1="118.999979%" y1="-110.864112%" x2="54.5018665%" y2="55.5871768%" id="linearGradient-2">
            <stop stop-color="#D2D2D2" offset="0%"></stop>
            <stop stop-color="#D2D2D2" stop-opacity="0" offset="100%"></stop>
        </linearGradient>
        <linearGradient x1="50%" y1="-221.156912%" x2="50%" y2="100%" id="linearGradient-3">
            <stop stop-color="#D2D2D2" offset="0%"></stop>
            <stop stop-color="#D2D2D2" stop-opacity="0" offset="100%"></stop>
        </linearGradient>
        <linearGradient x1="100.080959%" y1="-97.780461%" x2="38.826306%" y2="104.736078%" id="linearGradient-4">
            <stop stop-color="#D2D2D2" offset="0%"></stop>
            <stop stop-color="#D2D2D2" stop-opacity="0" offset="100%"></stop>
        </linearGradient>
        <linearGradient x1="50%" y1="-230.116303%" x2="50%" y2="100%" id="linearGradient-5">
            <stop stop-color="#D2D2D2" offset="0%"></stop>
            <stop stop-color="#D2D2D2" stop-opacity="0" offset="100%"></stop>
        </linearGradient>
        <linearGradient x1="50%" y1="-169.203289%" x2="50%" y2="100%" id="linearGradient-6">
            <stop stop-color="#D2D2D2" offset="0%"></stop>
            <stop stop-color="#D2D2D2" stop-opacity="0" offset="100%"></stop>
        </linearGradient>
        <linearGradient x1="67.5652976%" y1="48.1483269%" x2="73.0360423%" y2="53.742435%" id="linearGradient-7">
            <stop stop-color="#858585" stop-opacity="0" offset="0%"></stop>
            <stop stop-color="#616161" stop-opacity="0.5" offset="100%"></stop>
        </linearGradient>
        <linearGradient x1="-9.08348309%" y1="47.0002115%" x2="63.3066492%" y2="54.2782698%" id="linearGradient-8">
            <stop stop-color="#F2F2F2" offset="0%"></stop>
            <stop stop-color="#E9E9E9" offset="100%"></stop>
        </linearGradient>
        <linearGradient x1="1.72272354%" y1="41.7469759%" x2="92.5758819%" y2="53.6805412%" id="linearGradient-9">
            <stop stop-color="#CAC9C6" offset="0%"></stop>
            <stop stop-color="#DEDEDE" offset="100%"></stop>
        </linearGradient>
        <linearGradient x1="87.1087652%" y1="113.423332%" x2="23.1403667%" y2="0%" id="linearGradient-10">
            <stop stop-color="#C5C5C5" offset="0%"></stop>
            <stop stop-color="#FFFFFF" offset="100%"></stop>
        </linearGradient>
        <linearGradient x1="4.19072878%" y1="69.5502908%" x2="59.1408008%" y2="19.8569867%" id="linearGradient-11">
            <stop stop-color="#E3E3E3" offset="0%"></stop>
            <stop stop-color="#D3D3D3" offset="100%"></stop>
        </linearGradient>
        <linearGradient x1="37.6859833%" y1="24.9198125%" x2="98.939511%" y2="149.654577%" id="linearGradient-12">
            <stop stop-color="#E5E5E5" offset="0%"></stop>
            <stop stop-color="#E8E8E8" offset="100%"></stop>
        </linearGradient>
        <linearGradient x1="77.3304067%" y1="62.1428716%" x2="59.1051597%" y2="5.89099864%" id="linearGradient-13">
            <stop stop-color="#DDDDDD" offset="0%"></stop>
            <stop stop-color="#D3D3D3" offset="100%"></stop>
        </linearGradient>
        <linearGradient x1="71.2004482%" y1="64.4600492%" x2="-8.13839473%" y2="3.5253815%" id="linearGradient-14">
            <stop stop-color="#EEEEEE" offset="0%"></stop>
            <stop stop-color="#DADBDA" offset="100%"></stop>
        </linearGradient>
        <linearGradient x1="22.3257168%" y1="35.4462419%" x2="122.456702%" y2="88.6229823%" id="linearGradient-15">
            <stop stop-color="#FAFAFA" offset="0%"></stop>
            <stop stop-color="#EBEBEB" offset="100%"></stop>
        </linearGradient>
        <linearGradient x1="83.9306888%" y1="0%" x2="24.081276%" y2="96.2345237%" id="linearGradient-16">
            <stop stop-color="#DDDDDD" offset="0%"></stop>
            <stop stop-color="#DCDCDC" offset="100%"></stop>
        </linearGradient>
        <linearGradient x1="24.8509891%" y1="55.4623352%" x2="96.5466621%" y2="43.5845848%" id="linearGradient-17">
            <stop stop-color="#C5F2CF" offset="0.0184755068%"></stop>
            <stop stop-color="#22AD7E" offset="100%"></stop>
        </linearGradient>
        <linearGradient x1="5.68165075%" y1="83.6958265%" x2="26.1299949%" y2="65.2850565%" id="linearGradient-18">
            <stop stop-color="#73CD9D" offset="0%"></stop>
            <stop stop-color="#74D199" offset="99.9815245%"></stop>
        </linearGradient>
        <linearGradient x1="5.68165075%" y1="71.6996861%" x2="97.2052151%" y2="25.9835295%" id="linearGradient-19">
            <stop stop-color="#56BF83" offset="0.0184755068%"></stop>
            <stop stop-color="#14C161" offset="100%"></stop>
        </linearGradient>
        <linearGradient x1="97.2779382%" y1="4.89371124%" x2="45.460842%" y2="95.1952842%" id="linearGradient-20">
            <stop stop-color="#22AD7E" offset="0.0184755068%"></stop>
            <stop stop-color="#C6F2D3" offset="100%"></stop>
        </linearGradient>
    </defs>
    <g id="2课堂" stroke="none" stroke-width="1" fill="none" fill-rule="evenodd">
        <g id="2.1.5学生-旁听空" transform="translate(-682.000000, -331.000000)">
            <g id="不存在" transform="translate(682.000000, 331.000000)">
                <g id="编组-2" fill-rule="nonzero">
                    <path d="M109.888889,239.331123 C98.0185185,233.960752 85.1481481,219.553345 88.7962963,205.997788 C90.6209789,205.530772 92.540778,206.27488 93.574074,207.84964 C93.574074,207.84964 114.166667,240.016308 108.388889,210.423715 C105.666667,196.516308 100.981482,183.071863 100.611111,168.701493 C100,142.590382 123.962963,135.349641 130.851852,164.201493 C131.759259,168.016308 135.240741,199.034826 143.166667,195.479271 C144.18755,194.942335 145.015992,194.100948 145.537037,193.071864 C149.555556,186.479271 150.75926,176.794086 158.12963,174.553345 C164.592593,172.516308 170.962964,178.127419 174.444444,183.923715 C181.5,195.701493 190.944444,224.97927 176.5,234.905196 C162.055555,244.831122 125.611111,246.405196 110.018519,239.460751 L109.888889,239.331123 Z" id="路径" fill="url(#linearGradient-1)"></path>
                    <path d="M409.777777,270.645938 C404.555556,258.701493 404.685184,239.386678 416.537037,231.757048 C418.21207,232.657366 419.116738,234.53399 418.777777,236.405196 C418.777777,236.405196 412.462963,274.090382 428.037037,248.257048 C435.444444,236.090382 441,222.997789 450.25926,212.090382 C467.277779,192.201494 489.962963,202.997789 475.722222,229.016307 C473.87037,232.460753 455.611111,257.794086 463.870371,260.497789 C464.988532,260.772772 466.163836,260.701737 467.24074,260.294085 C474.648148,258.1089 482.055555,251.73853 489.055555,254.960753 C495.203703,257.794086 496.166667,266.201493 494.87037,272.849642 C492.203703,286.312604 479.132581,301.36818 461.762211,299.034846 C444.021471,296.627439 416.666667,286.386678 409.833333,270.775567 L409.777777,270.645938 Z" id="路径" fill="url(#linearGradient-2)"></path>
                    <path d="M555.777779,299.034827 C485.944445,251.127419 387.25926,221.257048 277.888889,221.257048 C168.518519,221.257048 69.8333334,251.127419 0,299.034827 L555.777779,299.034827 Z" id="路径" fill="url(#linearGradient-3)"></path>
                    <path d="M440.203704,154.590383 C435.777779,160.145937 432.944445,168.016308 435.592593,175.053345 C437.425926,179.905197 442.944444,179.942233 442.555556,186.682974 C442.174778,190.048753 441.021309,193.281 439.185185,196.127419 C436.056377,201.600036 432.22098,206.637106 427.777778,211.108901 C431.481458,213.997893 433.365584,218.641171 432.722222,223.294086 C431.995847,227.912424 429.808661,232.176463 426.481482,235.460752 C425.501819,236.658726 424.224623,237.578308 422.777778,238.127419 C421.376472,238.451083 419.919825,238.451083 418.518519,238.127419 C411.628593,236.958061 404.938814,234.819576 398.648148,231.775567 C394.722222,229.905196 390.722222,227.34964 389.38889,223.275567 C387.861111,218.599641 390.29022,217.113819 392.941769,215.648794 L393.626145,215.270536 C394.9953,214.506954 396.338625,213.677022 397.148148,212.34964 C399.092592,209.164456 399.148148,204.905196 399.833334,201.349641 C400.833333,196.108901 399.351852,186.553346 405.907407,184.497789 C408.444444,183.701493 411.203703,183.886679 413.74074,183.071864 C419.252058,181.317748 421.533665,176.133363 423.742656,170.891346 L424.144193,169.938367 C425.417645,166.923347 426.730452,163.95698 428.685185,161.682975 C431.462963,158.442234 438.351852,156.849641 440.203704,154.590383 Z M424.203704,185.682975 C424.203704,185.682975 404.25926,208.942233 404.907408,230.442234 L411.351852,230.442234 C411.351852,230.442234 413.685185,204.516307 424.203704,185.682975 Z" id="形状结合" fill="url(#linearGradient-4)"></path>
                    <path d="M156.203703,33.0163077 L156.203703,33.0163077 C156.306722,25.8378113 151.179333,19.6480295 144.107079,18.4132646 C137.034824,17.1784997 130.113335,21.2646339 127.777778,28.0533447 C123.321895,27.9659999 119.173802,30.3182637 116.961323,34.1870439 C114.748844,38.0558241 114.824987,42.823845 117.159872,46.6200057 C119.494757,50.4161664 123.715845,52.6347778 128.166667,52.4051965 L155,52.4051965 C160.094799,52.337238 164.27639,48.3543481 164.592105,43.2688863 C164.907822,38.1834244 161.250975,33.7139078 156.203703,33.0163077 L156.203703,33.0163077 Z" id="路径" fill="url(#linearGradient-5)"></path>
                    <path d="M267.111111,18.312604 L267.111111,18.2200114 C267.100199,9.34732281 260.706379,1.76948157 251.962059,0.265623081 C243.21774,-1.2382354 234.659668,3.7681621 231.685185,12.1274188 C223.27307,12.2603763 216.561487,19.1875261 216.694445,27.599641 C216.827402,36.0117559 223.754551,42.7233393 232.166667,42.5903818 L265.5,42.5903818 C271.922214,42.6018267 277.243826,37.6125435 277.645959,31.2029212 C278.048092,24.793299 273.391803,19.1780113 267.018519,18.3866781 L267.111111,18.312604 Z" id="路径" fill="url(#linearGradient-6)"></path>
                </g>
                <polygon id="矩形" fill="url(#linearGradient-7)" fill-rule="nonzero" points="91.5 211.5 170.75623 211.5 250.5 255 172.1688 253.004648"></polygon>
                <polygon id="路径" fill="url(#linearGradient-8)" fill-rule="nonzero" points="261.148147 113.166667 260.37037 162.722222 373.722222 128.407407"></polygon>
                <polygon id="路径" fill="url(#linearGradient-9)" fill-rule="nonzero" points="170.851853 133.111111 261.148147 113.37037 261.148147 143.462963"></polygon>
                <polygon id="路径" fill="url(#linearGradient-10)" fill-rule="nonzero" points="170.851853 133.111111 277.425926 143.666667 277.425926 278.518518 170.851853 252.722221"></polygon>
                <polygon id="矩形" fill="url(#linearGradient-11)" fill-rule="nonzero" points="170.851853 133.111111 277.5 143.25 265.88859 208.355454 170.851853 188.557035"></polygon>
                <polygon id="路径" fill="url(#linearGradient-12)" fill-rule="nonzero" opacity="0.99" points="277.425926 143.666667 373.722222 128.407407 373.722222 249.203703 277.425926 278.518518"></polygon>
                <polygon id="矩形" fill="url(#linearGradient-13)" fill-rule="nonzero" points="277.5 144 364.673789 130.062489 373.722222 187.089011 290.385872 208.355454"></polygon>
                <polygon id="路径" fill="url(#linearGradient-14)" fill-rule="nonzero" points="170.851853 133.111111 145.222222 176.5 252.814815 197.018518 277.425926 143.666667"></polygon>
                <polygon id="路径" fill="url(#linearGradient-15)" fill-rule="nonzero" opacity="0.99" points="277.425926 143.666667 307.685185 197.018518 404.666667 172.685185 373.722222 128.407407"></polygon>
                <path d="M264.277778,139.611111 C264.88889,139.611111 265.5,139.759259 266.12963,139.796296" id="路径" stroke="#DDDDDD" stroke-width="1.5"></path>
                <line x1="331.037037" y1="95.1666666" x2="331.722222" y2="93.4444444" id="路径" stroke="#DDDDDD" stroke-width="1.5"></line>
                <path d="M316.5,78 C289.121218,95.9497042 272.366122,111.915738 277.347171,121.802212 C284.117418,135.239918 295.61484,129.661343 297.359565,124.023125 C299.104288,118.384906 294.302806,107.379005 284.117418,113.37037 C273.932031,119.361736 262.833759,130.106222 260.37037,140.62963" id="路径-19" stroke="url(#linearGradient-16)" stroke-width="3" stroke-dasharray="6,4.5"></path>
                <g id="飞机" transform="translate(301.278165, 22.500000)">
                    <polygon id="路径-16备份" fill="url(#linearGradient-17)" fill-rule="nonzero" points="88.5 5.30242516e-13 0 16.7662445 22.5 31.7008316"></polygon>
                    <polygon id="路径-16备份-2" fill="url(#linearGradient-18)" fill-rule="nonzero" points="88.5 0 22.5 31.7008316 22.5 57"></polygon>
                    <polygon id="路径-16备份-2" fill="url(#linearGradient-19)" fill-rule="nonzero" points="88.5 5.06261699e-14 22.5 31.7008315 35.5453949 45.7418289"></polygon>
                    <polygon id="路径-16备份" fill="url(#linearGradient-20)" fill-rule="nonzero" points="88.5 0 31.9809461 38.0756646 59.1337488 55.5"></polygon>
                    <line x1="22.5" y1="31.7008316" x2="0.272263535" y2="17.45258" id="路径-16" stroke="#B2EDEC" stroke-width="1.5" stroke-linecap="round"></line>
                    <line x1="32.4137354" y1="38.6176575" x2="58.4266046" y2="55.2878019" id="路径-17" stroke="#B2EDEC" stroke-width="1.5" stroke-linecap="round"></line>
                    <line x1="22.5" y1="31.7008316" x2="22.5" y2="56.243242" id="路径-18" stroke="#B2EDEC" stroke-width="1.5" stroke-linecap="round"></line>
                </g>
            </g>
        </g>
    </g>
</svg>