<?xml version="1.0" encoding="UTF-8"?>
<svg width="44px" height="44px" viewBox="0 0 44 44" version="1.1" xmlns="http://www.w3.org/2000/svg" xmlns:xlink="http://www.w3.org/1999/xlink">
    <title>icon/点赞</title>
    <g id="2课堂" stroke="none" stroke-width="1" fill="none" fill-rule="evenodd">
        <g id="2.5.2.3任务-微课+心得1" transform="translate(-570.000000, -2640.000000)" fill-rule="nonzero" stroke="#626464" stroke-width="3">
            <g id="编组-8" transform="translate(511.000000, 2062.000000)">
                <g id="编组-11" transform="translate(39.000000, 550.000000)">
                    <g id="路径" transform="translate(20.000000, 28.000000)">
                        <path d="M13.8334441,6.25752096 C16.406968,6.2107262 19.0035216,7.12937617 21.160494,9.05837585 C21.5353048,9.39357251 21.881274,9.74535365 22.1985939,10.1112263 C22.4982155,9.73445719 22.8293086,9.37282214 23.1920044,9.02923651 C25.2036522,7.12358077 27.717159,6.21869733 30.2370422,6.2653549 C32.8254015,6.31328035 35.4130087,7.36005637 37.4791269,9.3236957 C39.5267559,11.4005003 40.5461705,14.1267682 40.4983966,16.818614 C40.4512318,19.476139 39.3601063,22.0995062 37.1886538,24.0159438 L37.1886538,24.0159438 L23.4348073,37.9375695 C22.9928666,38.3788547 22.4238299,38.6046512 21.8536749,38.6046512 C21.288709,38.6046512 20.7270096,38.3823838 20.2947018,37.944804 L20.2947018,37.944804 L6.56845802,24.0511672 C4.52607116,21.9838732 3.5,19.3303087 3.5,16.6742848 C3.5,14.0211788 4.52381784,11.3705269 6.56202801,9.30458338 C8.62916836,7.34947435 11.2147945,6.30513625 13.8334441,6.25752096 Z"></path>
                    </g>
                </g>
            </g>
        </g>
    </g>
</svg>