<?xml version="1.0" encoding="UTF-8"?>
<svg width="900px" height="857px" viewBox="0 0 900 857" version="1.1" xmlns="http://www.w3.org/2000/svg" xmlns:xlink="http://www.w3.org/1999/xlink">
    <title>满分奖励</title>
    <defs>
        <radialGradient cx="50%" cy="69.647118%" fx="50%" fy="69.647118%" r="57.1136672%" gradientTransform="translate(0.500000,0.696471),scale(0.669822,1.000000),rotate(90.000000),translate(-0.500000,-0.696471)" id="radialGradient-1">
            <stop stop-color="#FFBE57" offset="0%"></stop>
            <stop stop-color="#FFC057" stop-opacity="0.930097247" offset="12.7267264%"></stop>
            <stop stop-color="#FFDD58" stop-opacity="0" offset="100%"></stop>
        </radialGradient>
        <rect id="path-2" x="0" y="315" width="900" height="562" rx="20"></rect>
        <rect id="path-4" x="0" y="315" width="900" height="562" rx="98"></rect>
        <circle id="path-6" cx="451" cy="314.848446" r="94"></circle>
        <linearGradient x1="50%" y1="0%" x2="50%" y2="100%" id="linearGradient-8">
            <stop stop-color="#FF7F73" offset="0%"></stop>
            <stop stop-color="#F7876B" offset="100%"></stop>
        </linearGradient>
        <circle id="path-9" cx="451" cy="314.848446" r="87"></circle>
        <filter x="-18.7%" y="-34.5%" width="140.8%" height="148.1%" filterUnits="objectBoundingBox" id="filter-11">
            <feOffset dx="0" dy="4" in="SourceAlpha" result="shadowOffsetOuter1"></feOffset>
            <feGaussianBlur stdDeviation="4.5" in="shadowOffsetOuter1" result="shadowBlurOuter1"></feGaussianBlur>
            <feColorMatrix values="0 0 0 0 0.536231884   0 0 0 0 0.203318882   0 0 0 0 0.0373257445  0 0 0 0.148710664 0" type="matrix" in="shadowBlurOuter1" result="shadowMatrixOuter1"></feColorMatrix>
            <feMerge>
                <feMergeNode in="shadowMatrixOuter1"></feMergeNode>
                <feMergeNode in="SourceGraphic"></feMergeNode>
            </feMerge>
        </filter>
        <linearGradient x1="39.5329995%" y1="24.6982163%" x2="59.0875055%" y2="88.849023%" id="linearGradient-12">
            <stop stop-color="#FFEAC7" offset="0%"></stop>
            <stop stop-color="#FECB97" offset="100%"></stop>
        </linearGradient>
        <path d="M31.0611882,4.86625873 C31.0611882,9.15336112 31.7870502,10.4429517 31.0611882,14.8587721 C28.8710573,28.5181484 9.77670755,46.2444449 3.30330872,53.6414685 C-1.01229049,58.5728176 -1.00828406,68.9850531 3.31532802,84.8781751 C7.45671849,93.4752042 15.9752949,98.4065533 28.8710573,99.6722223 C41.7668197,100.937891 56.1606062,100.388354 72.052417,98.0236101 L67.0984472,38.6400903 C53.3503403,38.7762767 46.5510715,37.7999178 46.7006407,35.7110136 C49.015778,22.0128597 49.015778,14.3085472 45.3455556,6.60956215 C41.6753332,-1.08942293 31.0611882,-0.800662167 31.0611882,4.86625873 Z" id="path-13"></path>
        <linearGradient x1="50%" y1="0%" x2="50%" y2="100%" id="linearGradient-15">
            <stop stop-color="#FDD604" offset="0%"></stop>
            <stop stop-color="#FCBE00" offset="100%"></stop>
        </linearGradient>
        <linearGradient x1="50%" y1="0%" x2="50%" y2="100%" id="linearGradient-16">
            <stop stop-color="#FDD604" offset="0%"></stop>
            <stop stop-color="#FCBE00" offset="100%"></stop>
        </linearGradient>
        <path d="M28.9495022,-1.53901592e-13 C27.7621202,26.2778302 18.1122862,42.3108868 -1.94040121e-14,48.0991697 C34.8124722,48.0991697 60.7920698,48.0991697 77.9387927,48.0991697 C58.0246791,42.3761362 48.0676224,26.3430796 48.0676224,-1.53901592e-13 C40.17204,-1.53901592e-13 33.7993333,-1.53901592e-13 28.9495022,-1.53901592e-13 Z" id="path-17"></path>
        <path d="M5.4,0.166554382 L72.4298499,0.166554382 C75.4121875,0.166554382 77.8298499,2.58421673 77.8298499,5.56655438 L77.8298499,10.9212088 L77.8298499,10.9212088 L0,10.9212088 L0,5.56655438 C-3.65231026e-16,2.58421673 2.41766235,0.166554382 5.4,0.166554382 Z" id="path-19"></path>
        <linearGradient x1="4.18692003%" y1="34.7467677%" x2="94.8056289%" y2="34.7467677%" id="linearGradient-21">
            <stop stop-color="#FFDF1A" offset="0%"></stop>
            <stop stop-color="#FDDD0E" offset="100%"></stop>
        </linearGradient>
        <path d="M0.110077563,0 C0.0123915867,23.1963927 2.62585596,40.7583941 7.95047069,52.6860042 C12.0160691,61.7933059 22.1709163,77.1234166 38.4150125,98.6763363 L38.4150122,98.6763365 C45.5950658,108.202943 59.1384901,110.105201 68.6650971,102.925147 C70.1673074,101.792955 71.5151853,100.469381 72.6745211,98.9880182 C92.5949954,73.5342643 103.679504,55.6943067 105.928047,45.4681452 C108.763857,32.5711523 110.442743,17.4151039 110.964707,0 L0.110077563,0 Z" id="path-22"></path>
        <filter x="-51.2%" y="-24.2%" width="202.4%" height="116.2%" filterUnits="objectBoundingBox" id="filter-24">
            <feGaussianBlur stdDeviation="9.72" in="SourceGraphic"></feGaussianBlur>
        </filter>
        <linearGradient x1="50%" y1="0%" x2="50%" y2="100%" id="linearGradient-25">
            <stop stop-color="#FB9B03" offset="0%"></stop>
            <stop stop-color="#FDC004" stop-opacity="0.216783217" offset="100%"></stop>
        </linearGradient>
        <linearGradient x1="37.8982888%" y1="56.8974401%" x2="59.6284782%" y2="32.2853653%" id="linearGradient-26">
            <stop stop-color="#FEE64A" stop-opacity="0" offset="0%"></stop>
            <stop stop-color="#FEBD38" offset="100%"></stop>
        </linearGradient>
        <linearGradient x1="40.5239953%" y1="35.9330361%" x2="37.3123876%" y2="16.4018965%" id="linearGradient-27">
            <stop stop-color="#FEE64A" stop-opacity="0" offset="0%"></stop>
            <stop stop-color="#FFE771" offset="100%"></stop>
        </linearGradient>
        <linearGradient x1="0%" y1="50%" x2="82.5745554%" y2="50%" id="linearGradient-28">
            <stop stop-color="#FCCC41" offset="0%"></stop>
            <stop stop-color="#FEEE52" offset="28.4992453%"></stop>
            <stop stop-color="#FDBD02" offset="100%"></stop>
        </linearGradient>
        <polygon id="path-29" points="27.3742574 41.6950846 11.2840726 48.7673956 13.1419699 31.5119773 1.33979152 18.6274876 18.57822 15.0353636 27.3742574 0 36.1702948 15.0353636 53.4087233 18.6274876 41.6065449 31.5119773 43.4644422 48.7673956"></polygon>
        <filter x="-186.9%" y="-185.1%" width="473.8%" height="473.9%" filterUnits="objectBoundingBox" id="filter-31">
            <feMorphology radius="2.16" operator="dilate" in="SourceAlpha" result="shadowSpreadOuter1"></feMorphology>
            <feOffset dx="0" dy="4" in="shadowSpreadOuter1" result="shadowOffsetOuter1"></feOffset>
            <feGaussianBlur stdDeviation="32.5" in="shadowOffsetOuter1" result="shadowBlurOuter1"></feGaussianBlur>
            <feComposite in="shadowBlurOuter1" in2="SourceAlpha" operator="out" result="shadowBlurOuter1"></feComposite>
            <feColorMatrix values="0 0 0 0 0.822718524   0 0 0 0 0.362181806   0 0 0 0 0.0444280544  0 0 0 0.564548733 0" type="matrix" in="shadowBlurOuter1"></feColorMatrix>
        </filter>
        <linearGradient x1="69.2285292%" y1="34.9514886%" x2="9.69819313%" y2="74.9019513%" id="linearGradient-32">
            <stop stop-color="#FEF16B" offset="0%"></stop>
            <stop stop-color="#FCDB38" offset="100%"></stop>
        </linearGradient>
        <linearGradient x1="50%" y1="75.700889%" x2="78.6898821%" y2="0%" id="linearGradient-33">
            <stop stop-color="#FDE85C" offset="0%"></stop>
            <stop stop-color="#FBCD2F" offset="100%"></stop>
        </linearGradient>
        <linearGradient x1="50%" y1="75.700889%" x2="77.2906981%" y2="0%" id="linearGradient-34">
            <stop stop-color="#FDE85C" offset="0%"></stop>
            <stop stop-color="#FBCD2F" offset="100%"></stop>
        </linearGradient>
        <linearGradient x1="50%" y1="75.700889%" x2="77.3617406%" y2="0%" id="linearGradient-35">
            <stop stop-color="#FDE85C" offset="0%"></stop>
            <stop stop-color="#FBCD2F" offset="100%"></stop>
        </linearGradient>
        <linearGradient x1="0%" y1="50%" x2="65.0628829%" y2="50%" id="linearGradient-36">
            <stop stop-color="#FFF0D9" offset="0%"></stop>
            <stop stop-color="#FFDCAC" offset="100%"></stop>
        </linearGradient>
        <linearGradient x1="0%" y1="50%" x2="65.0628829%" y2="50%" id="linearGradient-37">
            <stop stop-color="#FFF0D9" offset="0%"></stop>
            <stop stop-color="#FFDCAC" offset="100%"></stop>
        </linearGradient>
        <path d="M67.9861919,111.416515 C67.9861919,121.279487 78.3091128,122.106395 97.268021,121.415117 C116.226929,120.723839 117.355441,118.446848 117.355441,111.416515 C117.355441,104.386182 113.827146,102.910292 96.3803842,102.910292 C78.9336229,102.910292 67.9861919,101.553544 67.9861919,111.416515 Z" id="path-38"></path>
        <filter x="-3.0%" y="-2.7%" width="104.1%" height="110.7%" filterUnits="objectBoundingBox" id="filter-40">
            <feOffset dx="-1" dy="1" in="SourceAlpha" result="shadowOffsetOuter1"></feOffset>
            <feColorMatrix values="0 0 0 0 1   0 0 0 0 0.788235294   0 0 0 0 0.580392157  0 0 0 1 0" type="matrix" in="shadowOffsetOuter1"></feColorMatrix>
        </filter>
        <path d="M75.992016,126.993212 C75.992016,134.74269 84.1132442,135.392404 99.0285594,134.849257 C113.943875,134.30611 114.686833,130.783552 114.686833,126.776948 C114.686833,122.770343 112.180608,120.309752 98.3302396,120.309752 C84.4798712,120.309752 75.992016,119.243735 75.992016,126.993212 Z" id="path-41"></path>
        <filter x="-3.9%" y="-3.4%" width="105.2%" height="113.6%" filterUnits="objectBoundingBox" id="filter-43">
            <feOffset dx="-1" dy="1" in="SourceAlpha" result="shadowOffsetOuter1"></feOffset>
            <feColorMatrix values="0 0 0 0 1   0 0 0 0 0.788235294   0 0 0 0 0.580392157  0 0 0 1 0" type="matrix" in="shadowOffsetOuter1"></feColorMatrix>
        </filter>
        <linearGradient x1="0%" y1="50%" x2="65.0628829%" y2="50%" id="linearGradient-44">
            <stop stop-color="#FFF0D9" offset="0%"></stop>
            <stop stop-color="#FFDCAC" offset="100%"></stop>
        </linearGradient>
        <path d="M79.994928,140.387823 C79.994928,148.1373 86.7159445,148.787014 99.0596537,148.243867 C111.403363,147.70072 112.018224,144.178163 112.018224,140.171558 C112.018224,136.164954 109.944108,133.704362 98.4817338,133.704362 C87.0193599,133.704362 79.994928,132.638345 79.994928,140.387823 Z" id="path-45"></path>
        <filter x="-4.7%" y="-3.4%" width="106.2%" height="113.6%" filterUnits="objectBoundingBox" id="filter-47">
            <feOffset dx="-1" dy="1" in="SourceAlpha" result="shadowOffsetOuter1"></feOffset>
            <feColorMatrix values="0 0 0 0 1   0 0 0 0 0.788235294   0 0 0 0 0.580392157  0 0 0 1 0" type="matrix" in="shadowOffsetOuter1"></feColorMatrix>
        </filter>
        <linearGradient x1="50%" y1="0%" x2="50%" y2="100%" id="linearGradient-48">
            <stop stop-color="#FF7F73" offset="0%"></stop>
            <stop stop-color="#F7876B" offset="100%"></stop>
        </linearGradient>
        <ellipse id="path-49" cx="87" cy="87.0368664" rx="87" ry="87.0368664"></ellipse>
        <linearGradient x1="50%" y1="0%" x2="50%" y2="100%" id="linearGradient-51">
            <stop stop-color="#FEE9A9" offset="0%"></stop>
            <stop stop-color="#FCCF70" offset="100%"></stop>
        </linearGradient>
        <rect id="path-52" x="0.210329615" y="0.00302762223" width="21.3488643" height="56.2573633" rx="2"></rect>
    </defs>
    <g id="2课堂" stroke="none" stroke-width="1" fill="none" fill-rule="evenodd">
        <g id="2.4.3.5堂测详情-满分奖励" transform="translate(-510.000000, 0.000000)">
            <g id="满分奖励" transform="translate(510.000000, -19.848446)">
                <g id="编组-17" transform="translate(1.437403, 0.000000)">
                    <path d="M502.562597,0.84844591 L455.531597,433.126446 L612.64267,29.6580745 L692.617885,68.7481046 L456.797597,443.750446 L459.496597,443.428446 L776.05718,140.455081 L832.054474,209.754028 L466.012597,445.984446 L878.046322,314.345475 L898.062597,401.23111 L465.918597,452.726446 L894.125661,515.462812 L874.109386,602.348446 L461.470597,458.191446 L463.411103,460.151405 L459.581597,457.531446 L457.474597,456.795446 L460.120501,464.166559 L455.306597,456.038446 L453.121597,455.274446 L451.75382,467.848446 L450.770597,455.821446 L448.139597,457.518446 L442.606914,466.317648 L445.325597,459.335446 L437.806389,464.188988 L446.780597,455.598446 L447.022597,454.977446 L432.416106,456.718737 L445.390597,452.573446 L440.316597,450.800446 L20.0788725,585.062673 L0.0625972066,498.177039 L432.205597,446.681446 L4.00080013,383.94563 L24.0170754,297.059995 L434.767597,440.556446 L77.1017705,195.891915 L133.099064,126.592967 L448.186597,444.776446 L448.609597,444.726446 L221.447638,61.0552118 L301.422854,21.9651817 L448.894597,432.888446 L413.562597,0.84844591 L502.562597,0.84844591 Z M446.607597,448.791446 L444.234597,449.549446 L448.871597,450.228446 L448.878597,450.209446 L446.859597,448.828446 L446.607597,448.791446 Z M457.545597,445.296446 L455.393597,445.984446 L454.476597,447.442446 L455.082597,447.654446 L457.545597,445.296446 Z" id="形状结合" fill="url(#radialGradient-1)"></path>
                    <g id="编组-21" transform="translate(250.562597, 121.848446)" fill="#FFFFFF">
                        <path d="M157.64898,94 C159.273232,101.016669 161.12595,105.555671 163.207136,107.617005 C165.288322,109.678339 169.219276,111.363423 175,112.672255 C168.367031,113.652716 163.887792,115.29461 161.562283,117.597937 C159.236774,119.901264 157.549346,124.368618 156.5,131 C155.8461,124.17601 154.453627,119.708656 152.322581,117.597937 C150.191534,115.487218 145.417341,113.845324 138,112.672255 C145.363706,111.465931 150.137899,109.780848 152.322581,107.617005 C154.507262,105.453162 156.282729,100.914161 157.64898,94 Z" id="多边形"></path>
                        <path d="M391.64898,113 C393.273232,120.016669 395.12595,124.555671 397.207136,126.617005 C399.288322,128.678339 403.219276,130.363423 409,131.672255 C402.367031,132.652716 397.887792,134.29461 395.562283,136.597937 C393.236774,138.901264 391.549346,143.368618 390.5,150 C389.8461,143.17601 388.453627,138.708656 386.322581,136.597937 C384.191534,134.487218 379.417341,132.845324 372,131.672255 C379.363706,130.465931 384.137899,128.780848 386.322581,126.617005 C388.507262,124.453162 390.282729,119.914161 391.64898,113 Z" id="多边形备份-3"></path>
                        <path d="M12.2142311,170 C13.2239008,174.361713 14.3755907,177.183255 15.6693008,178.464625 C16.9630108,179.745995 19.4065772,180.793479 23,181.607078 C18.876803,182.216553 16.0924112,183.23719 14.6468244,184.668988 C13.2012377,186.100786 12.1522962,188.87779 11.5,193 C11.0935217,188.758061 10.2279303,185.981057 8.90322581,184.668988 C7.57852133,183.356919 4.6107794,182.336282 0,181.607078 C4.5774386,180.8572 7.54518054,179.809716 8.90322581,178.464625 C10.2612711,177.119533 11.3649395,174.297992 12.2142311,170 Z" id="多边形备份-4"></path>
                        <path d="M24.8073917,74 C25.9487575,78.9306323 27.2506678,82.1202011 28.7131226,83.5687061 C30.1755775,85.0172112 32.9378699,86.2013239 37,87.1210443 C32.3389947,87.8100167 29.1914213,88.96378 27.5572798,90.5823341 C25.9231382,92.2008882 24.7373783,95.3401102 24,100 C23.5405028,95.2047641 22.5620081,92.0655422 21.0645161,90.5823341 C19.5670241,89.0991261 16.2121854,87.9453628 11,87.1210443 C16.1744958,86.273357 19.5293345,85.0892443 21.0645161,83.5687061 C22.5996977,82.048168 23.8473229,78.8585993 24.8073917,74 Z" id="多边形备份"></path>
                        <path d="M280.965803,0 C281.624283,2.84459559 282.375385,4.68473138 283.219109,5.52040739 C284.062833,6.35608339 285.656463,7.03922534 288,7.56983323 C285.310958,7.96731734 283.495051,8.63295001 282.552277,9.56673123 C281.609503,10.5005125 280.925411,12.311602 280.5,15 C280.234905,12.2335178 279.670389,10.4224282 278.806452,9.56673123 C277.942514,8.71103428 276.00703,8.04540161 273,7.56983323 C275.985286,7.08078288 277.92077,6.39764093 278.806452,5.52040739 C279.692133,4.64317385 280.411917,2.80303805 280.965803,0 Z" id="多边形备份-2"></path>
                    </g>
                </g>
                <mask id="mask-3" fill="white">
                    <use xlink:href="#path-2"></use>
                </mask>
                <use id="蒙版" fill="#FFD41B" xlink:href="#path-2"></use>
                <mask id="mask-5" fill="white">
                    <use xlink:href="#path-4"></use>
                </mask>
                <use id="蒙版" fill="#FFFFFF" xlink:href="#path-4"></use>
                <mask id="mask-7" fill="white">
                    <use xlink:href="#path-6"></use>
                </mask>
                <use id="蒙版" fill="#FFFFFF" xlink:href="#path-6"></use>
                <mask id="mask-10" fill="white">
                    <use xlink:href="#path-9"></use>
                </mask>
                <use id="蒙版" fill="url(#linearGradient-8)" xlink:href="#path-9"></use>
                <g id="编组-24" transform="translate(364.000000, 214.848446)" filter="url(#filter-11)">
                    <g id="编组-18" transform="translate(10.518176, 0.000000)">
                        <g id="路径-32" transform="translate(29.291375, 50.608152)">
                            <mask id="mask-14" fill="white">
                                <use xlink:href="#path-13"></use>
                            </mask>
                            <use id="蒙版" fill="url(#linearGradient-12)" xlink:href="#path-13"></use>
                            <path d="M2.26395638,64.1219162 C5.82169203,79.3218602 13.166907,88.73048 24.2996014,92.3477755 C35.4322958,95.9650711 48.7053672,98.4065533 64.1188156,99.6722223 C22.2473659,101.708497 1.311641,102.726635 1.311641,102.726635 C1.311641,102.726635 -2.06648765,92.3389341 -8.82274494,71.5635326 L2.26395638,64.1219162 Z" fill="#FFC994" mask="url(#mask-14)"></path>
                        </g>
                        <g id="编组-13" transform="translate(0.679844, 0.084464)">
                            <path d="M130.241155,22.3495198 L130.241155,12.7956654 L130.649126,12.7999225 L131.23768,12.8146919 L131.411657,12.8203779 C132.284153,12.8501952 133.250569,12.9035465 134.289068,12.9863574 C137.270311,13.2240844 140.258965,13.6530569 143.093881,14.3312336 C146.943351,15.2521145 150.233079,16.5637443 152.828073,18.42609 C156.384922,20.9787276 158.49505,24.5122625 158.49505,28.8324924 C158.49505,43.300138 142.547013,60.3914364 112.364261,77.7622806 L111.445276,78.2887529 L106.811881,69.9651306 C134.862551,53.9686374 149.055933,38.8865367 149.055933,28.8324924 C149.055933,26.8578825 146.373671,24.9329076 140.922765,23.6289265 C138.609545,23.0755516 136.082339,22.7128124 133.547721,22.5106996 C133.292849,22.4903759 133.04335,22.4721355 132.799786,22.4558601 L132.087462,22.4128107 L131.414126,22.380842 L130.510118,22.3527441 L130.241155,22.3495198 Z" id="路径" fill="url(#linearGradient-15)" fill-rule="nonzero"></path>
                            <path d="M24.8490838,22.318288 L24.8490838,12.7956654 L25.2614297,12.7999086 L25.8562944,12.8146297 L26.0321375,12.8202972 C26.9139885,12.8500169 27.8907677,12.9031938 28.9404027,12.985734 C31.9536124,13.2226839 34.9743132,13.6502541 37.8396283,14.3262138 C41.730375,15.2440843 45.0553779,16.5514263 47.6781984,18.407684 C51.2731862,20.9519769 53.4059406,24.4739606 53.4059406,28.7800676 C53.4059406,43.5441534 35.5709801,63.3072502 5.59514734,80.3581506 L4.68307842,80.8740064 L0,72.5775942 C3.44753758,70.6387789 6.7190751,68.6714621 9.80708371,66.686238 L11.0324811,65.8912183 C20.5544734,59.6564768 28.2647639,53.2597925 33.9317468,47.0270648 C40.5259491,39.7745517 43.8656103,33.2263945 43.8656103,28.7800676 C43.8656103,26.9550512 41.5345779,25.1725733 36.8029024,23.8866896 L36.2351549,23.7377277 C36.042211,23.6888557 35.8455711,23.6407747 35.6452309,23.5935122 C33.3072072,23.0419464 30.7529021,22.680393 28.191106,22.4789409 C27.9335011,22.4586836 27.6813264,22.4405028 27.4351506,22.4242806 L26.7151887,22.381372 L26.0346329,22.3495078 L25.1209315,22.3215018 L24.8490838,22.318288 Z" id="路径" fill="url(#linearGradient-16)" fill-rule="nonzero" transform="translate(26.702970, 46.834836) scale(-1, 1) translate(-26.702970, -46.834836) "></path>
                            <g id="路径-17" transform="translate(40.485149, 113.620550)">
                                <mask id="mask-18" fill="white">
                                    <use xlink:href="#path-17"></use>
                                </mask>
                                <use id="蒙版" fill="#A0A0A0" xlink:href="#path-17"></use>
                                <polygon fill="#959595" mask="url(#mask-18)" points="38.0554554 0 38.0554554 55.6707606 77.9944573 55.6707606 77.9944573 0"></polygon>
                            </g>
                            <g id="路径-17" transform="translate(40.485149, 158.431610)">
                                <mask id="mask-20" fill="white">
                                    <use xlink:href="#path-19"></use>
                                </mask>
                                <use id="蒙版" fill="#8C8B8B" xlink:href="#path-19"></use>
                                <polygon fill="#7C7C7C" mask="url(#mask-20)" points="37.890848 -44.3629493 37.890848 10.9212088 77.8298499 10.9212088 77.8298499 -44.3629493"></polygon>
                            </g>
                            <g id="路径-13-+-矩形-蒙版" transform="translate(23.257426, 9.348661)">
                                <mask id="mask-23" fill="white">
                                    <use xlink:href="#path-22"></use>
                                </mask>
                                <use id="蒙版" fill="url(#linearGradient-21)" xlink:href="#path-22"></use>
                                <path d="M37.9090883,-1.44658479e-13 C37.8589019,23.1963927 39.2015735,40.7583941 41.9371028,52.6860042 C42.7800051,56.3612748 44.1323745,61.0499565 45.994211,66.7520493 L45.9942126,66.7520488 C49.6969756,78.0921956 61.8916635,84.2835184 73.2318103,80.5807554 C79.8284705,78.4268265 84.9885754,73.2346788 87.1016269,66.6248112 C89.9694631,57.6538898 91.693334,50.6016678 92.2732395,45.4681452 C93.7301411,32.5711523 94.5926718,17.4151039 94.8608316,-1.44658479e-13 L37.9090883,-1.44658479e-13 Z" id="路径-13" fill="#FDB405" filter="url(#filter-24)" mask="url(#mask-23)"></path>
                                <rect id="矩形" fill="url(#linearGradient-25)" mask="url(#mask-23)" x="-2.03403927" y="4.07177419" width="114.584212" height="6.78629032"></rect>
                                <path d="M16.2131861,10.5519504 C16.1438811,31.7169091 17.9980465,47.7409108 21.7756823,58.6239553 C24.073981,65.2451568 29.1150904,75.4711789 36.8990105,89.3020217 L36.8990099,89.3020221 C42.7498327,99.6980448 55.9205032,103.382657 66.3165259,97.5318346 C69.7035712,95.6256246 72.5135404,92.840847 74.4501744,89.471105 C84.3550035,72.2367079 89.9674421,59.759074 91.2874902,52.0382034 C93.2994019,40.2706702 94.4905157,26.4419192 94.8608316,10.5519504 L16.2131861,10.5519504 Z" id="路径-13" fill="url(#linearGradient-26)" mask="url(#mask-23)"></path>
                                <path d="M16.2131861,10.5519504 C16.1438811,31.7169091 17.9980465,47.7409108 21.7756823,58.6239553 C24.073981,65.2451568 29.1150904,75.4711789 36.8990105,89.3020217 L36.8990099,89.3020221 C42.7498327,99.6980448 55.9205032,103.382657 66.3165259,97.5318346 C69.7035712,95.6256246 72.5135404,92.840847 74.4501744,89.471105 C84.3550035,72.2367079 89.9674421,59.759074 91.2874902,52.0382034 C93.2994019,40.2706702 94.4905157,26.4419192 94.8608316,10.5519504 L16.2131861,10.5519504 Z" id="路径-13" fill="url(#linearGradient-27)" opacity="0.459705171" mask="url(#mask-23)"></path>
                            </g>
                            <path d="M23.270495,0.73114924 L133.501782,0.73114924 C135.887652,0.73114924 137.821782,2.66527912 137.821782,5.05114924 L137.821782,11.4974165 C137.821782,12.6903516 136.854717,13.6574165 135.661782,13.6574165 L21.110495,13.6574165 C19.91756,13.6574165 18.950495,12.6903516 18.950495,11.4974165 L18.950495,5.05114924 C18.950495,2.66527912 20.8846249,0.73114924 23.270495,0.73114924 Z" id="矩形" fill="url(#linearGradient-28)"></path>
                            <g id="路径-14" transform="translate(51.683168, 26.583684)">
                                <mask id="mask-30" fill="white">
                                    <use xlink:href="#path-29"></use>
                                </mask>
                                <g id="蒙版" stroke-linejoin="round">
                                    <use fill="black" fill-opacity="1" filter="url(#filter-31)" xlink:href="#path-29"></use>
                                    <path stroke="#FFF39D" stroke-width="2.16" d="M27.3742574,-2.13878775 L36.8602484,14.0759368 L55.4871411,17.9573873 L42.7325838,31.8815932 L44.7379763,50.5068897 L27.3742574,42.874807 L10.0105385,50.5068897 L12.0159311,31.8815932 L-0.738626224,17.9573873 L17.8882665,14.0759368 L27.3742574,-2.13878775 Z" fill="#FDE454" fill-rule="evenodd"></path>
                                </g>
                                <polygon fill="#FCD240" mask="url(#mask-30)" points="27.3742574 1.43318499 27.3742574 26.9579533 35.8225443 15.1902083"></polygon>
                                <polygon id="路径-32" fill="url(#linearGradient-32)" mask="url(#mask-30)" points="28.3136184 26.9579533 53.4087233 18.6274876 38.3402175 9.24786591"></polygon>
                                <polygon id="路径-37" fill="#FCD743" mask="url(#mask-30)" points="27.3742574 26.9579533 43.3891043 32.5973619 54.8099372 18.1029096"></polygon>
                                <polygon id="路径-38" fill="#FEE24F" mask="url(#mask-30)" points="27.109908 27.9164326 47.1273337 32.5973619 44.3328466 51.2865781"></polygon>
                                <polygon id="路径-39" fill="url(#linearGradient-33)" mask="url(#mask-30)" points="27.109908 51.2865781 28.0260423 26.9579533 9.59724722 51.2865781"></polygon>
                                <polygon id="路径-39" fill="url(#linearGradient-34)" mask="url(#mask-30)" transform="translate(13.431032, 22.086793) rotate(72.000000) translate(-13.431032, -22.086793) " points="21.5599397 34.383928 22.5738875 9.7113846 4.28817694 34.4622005"></polygon>
                                <polygon id="路径-39" fill="url(#linearGradient-35)" mask="url(#mask-30)" transform="translate(26.564156, 11.797029) rotate(138.000000) translate(-26.564156, -11.797029) " points="34.8993257 24.0419844 35.622401 -0.44792676 17.5059106 23.9095487"></polygon>
                                <polygon id="路径-39" fill="url(#linearGradient-33)" mask="url(#mask-30)" transform="translate(36.604912, 39.122266) scale(-1, 1) translate(-36.604912, -39.122266) " points="44.9031753 51.2865781 45.8193096 26.9579533 27.3905145 51.2865781"></polygon>
                                <polygon id="路径-42" fill="#FFFFFF" fill-rule="nonzero" opacity="0.554152716" mask="url(#mask-30)" points="21.0838045 11.1540117 27.3742574 18.1029096 27.3742574 20.8847908 19.5875667 12.5384648"></polygon>
                                <polygon id="路径-42备份" fill="#FFFFFF" fill-rule="nonzero" opacity="0.554152716" mask="url(#mask-30)" points="22.4525174 7.78426752 27.4520862 13.0798381 27.4520862 16.3250316 20.9562796 9.16872064"></polygon>
                            </g>
                            <path d="M47.8741767,19.2910501 C44.83475,19.2936028 41.794323,20.4872709 38.7528955,22.8720543 C41.1376789,19.8306269 42.331347,16.7901998 42.3338997,13.7507732 C42.3364524,10.7113465 41.1478898,7.67292022 38.7682118,4.6354943 C41.8056377,7.01517229 44.844064,8.20373493 47.8834907,8.20118223 C50.9229173,8.19862952 53.9633444,7.00496147 57.0047718,4.62017806 C54.6199884,7.66160548 53.4263203,10.7020325 53.4237676,13.7414592 C53.4212149,16.7808859 54.6097776,19.8193122 56.9894555,22.8567381 C53.9520296,20.4770601 50.9136033,19.2884974 47.8741767,19.2910501 Z" id="星形" fill="#FFFFFF" transform="translate(47.878834, 13.746116) rotate(-315.000000) translate(-47.878834, -13.746116) "></path>
                        </g>
                        <path d="M75.992016,98.7637796 C75.992016,103.72708 86.1515689,104.225965 99.9252115,104.18438 C113.698854,104.142796 114.686833,103.11394 114.686833,96.8459708 C114.686833,90.5780014 109.748513,89.4525223 94.9894586,89.4525223 C80.2304047,89.4525223 75.992016,93.8004793 75.992016,98.7637796 Z" id="路径-30" fill="url(#linearGradient-36)"></path>
                        <mask id="mask-39" fill="white">
                            <use xlink:href="#path-38"></use>
                        </mask>
                        <g id="蒙版">
                            <use fill="black" fill-opacity="1" filter="url(#filter-40)" xlink:href="#path-38"></use>
                            <use fill="url(#linearGradient-37)" fill-rule="evenodd" xlink:href="#path-38"></use>
                        </g>
                        <mask id="mask-42" fill="white">
                            <use xlink:href="#path-41"></use>
                        </mask>
                        <g id="蒙版">
                            <use fill="black" fill-opacity="1" filter="url(#filter-43)" xlink:href="#path-41"></use>
                            <use fill="url(#linearGradient-36)" fill-rule="evenodd" xlink:href="#path-41"></use>
                        </g>
                        <mask id="mask-46" fill="white">
                            <use xlink:href="#path-45"></use>
                        </mask>
                        <g id="蒙版">
                            <use fill="black" fill-opacity="1" filter="url(#filter-47)" xlink:href="#path-45"></use>
                            <use fill="url(#linearGradient-44)" fill-rule="evenodd" xlink:href="#path-45"></use>
                        </g>
                    </g>
                    <g id="编组-17" transform="translate(0.000000, 12.880130)">
                        <mask id="mask-50" fill="white">
                            <use xlink:href="#path-49"></use>
                        </mask>
                        <use id="蒙版" fill="url(#linearGradient-48)" opacity="0" xlink:href="#path-49"></use>
                        <g mask="url(#mask-50)">
                            <g transform="translate(-6.891089, 78.796880)">
                                <rect id="矩形" fill="url(#linearGradient-51)" x="0" y="3.1333563" width="58.7093768" height="50.8995191"></rect>
                                <g id="路径-31" stroke-width="1" fill="none" transform="translate(37.150183, 0.000000)">
                                    <mask id="mask-53" fill="white">
                                        <use xlink:href="#path-52"></use>
                                    </mask>
                                    <use id="蒙版" fill="#5374FD" xlink:href="#path-52"></use>
                                    <path d="M13.4062629,-6.0211125 C16.6910129,0.406779958 18.3333879,5.58602927 18.3333879,9.51663545 C18.3333879,15.4125447 17.1156538,38.6966412 16.0763719,45.3729769 C15.0370899,52.0493125 2.87893765,52.0493125 -0.0727600158,42.1818154 C-2.04055846,35.603484 -3.35060914,38.393621 -4.00291206,50.5522262 L-1.37511206,64.2971571 L27.0379754,64.2971571 L38.0418878,30.8312384 C29.6110295,1.34935768 25.3956004,-13.3915827 25.3956004,-13.3915827 C25.3956004,-13.3915827 21.3991545,-10.9347593 13.4062629,-6.0211125 Z" fill="#4B62E2" mask="url(#mask-53)"></path>
                                    <ellipse id="椭圆形" fill="#FFFFFF" mask="url(#mask-53)" cx="6.88184971" cy="47.3355703" rx="4.00291206" ry="4.01838309"></ellipse>
                                </g>
                            </g>
                        </g>
                    </g>
                </g>
                <g id="编组-8" transform="translate(181.000000, 179.848446)">
                    <path d="M328,166 C328,166 328,167.902725 328,171.708176 L337,179 L337,169.367902 C331,167.122634 328,166 328,166 Z" id="路径-36" fill="#52FD9A"></path>
                    <path d="M95,209 C95,209 95,210.902725 95,214.708176 L104,222 L104,212.367902 C98,210.122634 95,209 95,209 Z" id="路径-36备份-8" fill="#FCEB7A"></path>
                    <path d="M0,332 C0,332 0,333.902725 0,337.708176 L9,345 L9,335.367902 C3,333.122634 0,332 0,332 Z" id="路径-36备份-12" fill="#16E6FF"></path>
                    <path d="M62,89 C62,89 62,90.9027253 62,94.708176 L71,102 L71,92.3679018 C65,90.1226339 62,89 62,89 Z" id="路径-36备份-9" fill="#16E6FF"></path>
                    <path d="M183,44 C183,44 183,45.4636349 183,48.3909046 L189,54 L189,46.5906937 C185,44.8635646 183,44 183,44 Z" id="路径-36备份-13" fill="#52FD9A"></path>
                    <path d="M199,126 C199,126 199,127.463635 199,130.390905 L205,136 L205,128.590694 C201,126.863565 199,126 199,126 Z" id="路径-36备份-16" fill="#FDEDDF"></path>
                    <path d="M275,0 C275,0 275,1.90272532 275,5.70817595 L284,13 L284,3.3679018 C278,1.12263393 275,0 275,0 Z" id="路径-36备份-14" fill="#16E6FF"></path>
                    <path d="M322.156899,48.4877548 C322.156899,48.4877548 322.156622,50.3050701 322.156068,53.9397008 L330.425706,60.9029455 L330.427108,51.7032153 C324.913636,49.559575 322.156899,48.4877548 322.156899,48.4877548 Z" id="路径-36备份-15" fill="#52FD9A" transform="translate(326.291588, 54.695350) rotate(80.000000) translate(-326.291588, -54.695350) "></path>
                    <path d="M16,12 C16,12 16,13.9027253 16,17.708176 L25,25 L25,15.3679018 C19,13.1226339 16,12 16,12 Z" id="路径-36备份-10" fill="#FCEB7A"></path>
                    <path d="M91.9078029,281.372339 C91.9078029,281.372339 91.9085664,283.219048 91.9100934,286.912466 L100.218719,293.993052 L100.214854,284.644525 C94.6768199,282.463068 91.9078029,281.372339 91.9078029,281.372339 Z" id="路径-36备份-11" fill="#16E6FF" transform="translate(96.063261, 287.682696) rotate(-56.000000) translate(-96.063261, -287.682696) "></path>
                    <path d="M313,242 C313,242 313,243.463635 313,246.390905 L319,252 L319,244.590694 C315,242.863565 313,242 313,242 Z" id="路径-36备份" fill="#52FD9A"></path>
                    <path d="M365,156 C365,156 365,157.463635 365,160.390905 L371,166 L371,158.590694 C367,156.863565 365,156 365,156 Z" id="路径-36备份-2" fill="#16E6FF"></path>
                    <path d="M385,317 C385,317 385,318.463635 385,321.390905 L391,327 L391,319.590694 C387,317.863565 385,317 385,317 Z" id="路径-36备份-6" fill="#16E6FF"></path>
                    <path d="M462,137 C462,137 462,138.463635 462,141.390905 L468,147 L468,139.590694 C464,137.863565 462,137 462,137 Z" id="路径-36备份-7" fill="#FCEB7A"></path>
                    <path d="M440,238 C440,238 440,239.463635 440,242.390905 L446,248 L446,240.590694 C442,238.863565 440,238 440,238 Z" id="路径-36备份-3" fill="#16E6FF"></path>
                    <path d="M435,75 C435,75 435,77.0490888 435,81.1472664 L444,89 L444,78.6269712 C438,76.2089904 435,75 435,75 Z" id="路径-36备份-4" fill="#16E6FF"></path>
                    <path d="M528,235 C528,235 528,237.049089 528,241.147266 L537,249 L537,238.626971 C531,236.20899 528,235 528,235 Z" id="路径-36备份-5" fill="#FCEB7A"></path>
                </g>
            </g>
        </g>
    </g>
</svg>