<?xml version="1.0" encoding="UTF-8"?>
<svg width="40px" height="40px" viewBox="0 0 40 40" version="1.1" xmlns="http://www.w3.org/2000/svg" xmlns:xlink="http://www.w3.org/1999/xlink">
    <title>临时功能/返回</title>
    <g id="2课堂" stroke="none" stroke-width="1" fill="none" fill-rule="evenodd">
        <g id="2.2.2课程-课中" transform="translate(-1742.000000, -908.000000)" fill="#FFFFFF" fill-rule="nonzero">
            <g id="临时功能/右边组件" transform="translate(1714.000000, 894.000000)">
                <g id="编组" transform="translate(28.000000, 14.000000)">
                    <path d="M18.2961549,10.230627 L18.2961549,4.40117849 C17.756218,1.96340909 15.704458,3.44726873 15.704458,3.44726873 L1.45012507,15.4241357 C-1.68150867,17.5439352 1.23415034,19.1337848 1.23415034,19.1337848 L15.2725086,31.0046617 C18.0801802,33.0184713 18.296155,29.944762 18.2961549,29.944762 L18.2961549,24.5392734 C32.5504878,20.1936845 38.3818058,37.5760401 38.3818058,37.5760401 C38.9217427,38.5299499 39.2457048,37.5760401 39.2457048,37.5760401 C44.7530607,11.5025067 18.2961549,10.230627 18.2961549,10.230627 Z" id="路径" transform="translate(20.000000, 20.500000) scale(-1, 1) translate(-20.000000, -20.500000) "></path>
                </g>
            </g>
        </g>
    </g>
</svg>