<?xml version="1.0" encoding="UTF-8"?>
<svg width="36px" height="34px" viewBox="0 0 36 34" version="1.1" xmlns="http://www.w3.org/2000/svg" xmlns:xlink="http://www.w3.org/1999/xlink">
    <title>切片</title>
    <defs>
        <!-- <filter id="filter-1">
            <feColorMatrix in="SourceGraphic" type="matrix" values="0 0 0 0 1.000000 0 0 0 0 1.000000 0 0 0 0 1.000000 0 0 0 1.000000 0"></feColorMatrix>
        </filter> -->
    </defs>
    <g id="2课堂" stroke="none" stroke-width="1" >
        <g id="2.8.3课堂-分层情况-修改" transform="translate(-1577.000000, -884.000000)">
            <g id="临时功能/右边组件备份" transform="translate(1550.000000, 871.000000)">
                <g id="编组-2" transform="translate(27.000000, 13.125000)">
                    <g transform="translate(2.898000, 2.716875)">
                        <g id="编组" transform="translate(0.702000, 0.658125)" >
                            <path d="M0.484293305,18.6445426 L0.483561102,18.6445426 L13.4473596,26.2249926 C13.7670597,26.4055372 14.1670444,26.4055372 14.4867445,26.2249926 L27.4512752,18.6445426" id="路径" stroke="#888A89" stroke-width="2.5" stroke-linecap="round" stroke-linejoin="round"></path>
                            <path d="M0.484293305,13.28 L13.4473596,20.86045 C13.7670597,21.0409946 14.1670444,21.0409946 14.4867445,20.86045 L27.4512752,13.28" id="路径" stroke="#888A89" stroke-width="2.5" stroke-linecap="round" stroke-linejoin="round"></path>
                            <path d="M13.4473596,16.9286581 C13.7670597,17.1092026 14.1670444,17.1092026 14.4867445,16.9286581 L27.4512752,9.34820808 C27.6791199,9.21725935 27.841583,9.00434146 27.9040787,8.75694001 C27.9665314,8.50885211 27.9232022,8.2483679 27.7827913,8.03197743 C27.6955342,7.90637226 27.5829148,7.79797955 27.4512752,7.71290345 L14.4867445,0.135199206 C14.1669618,-0.045066402 13.7671423,-0.045066402 13.4473596,0.135199206 L0.484336376,7.71149019 C0.256448693,7.84243893 0.091788967,8.05471075 0.0285610103,8.3021122 C-0.0346669463,8.5502001 0.00797316068,8.81209757 0.147651814,9.02844766 C0.227957375,9.16090639 0.3440674,9.27119402 0.484293305,9.34820808 L13.4473596,16.9286581 Z" id="路径" ></path>
                        </g>
                    </g>
                </g>
            </g>
        </g>
    </g>
</svg>