<?xml version="1.0" encoding="UTF-8"?>
<svg width="80px" height="80px" viewBox="0 0 80 80" version="1.1" xmlns="http://www.w3.org/2000/svg" xmlns:xlink="http://www.w3.org/1999/xlink">
    <title>图标/课堂/试卷</title>
    <g id="2课堂" stroke="none" stroke-width="1" fill="none" fill-rule="evenodd">
        <g id="2.3.2课中-ppt" transform="translate(-203.000000, -410.000000)">
            <g id="组件/列表/讲义备份-2" transform="translate(0.000000, 390.000000)">
                <g id="图标/课堂/ppt" transform="translate(203.000000, 20.000000)">
                    <g id="编组" transform="translate(0.000000, 5.000000)">
                        <path d="M32.9411765,0 L70.5882353,0 C75.7862094,3.66187608e-15 80,4.21379059 80,9.41176471 L80,14.1176471 L80,14.1176471 L32.9411765,14.1176471 L32.9411765,0 Z" id="矩形" fill="#F4B859"></path>
                        <path d="M18.8235294,0 L70.5882353,0 L70.5882353,0 L70.5882353,61.1764706 C70.5882353,66.3744447 66.3744447,70.5882353 61.1764706,70.5882353 L18.8235294,70.5882353 C13.6255553,70.5882353 9.41176471,66.3744447 9.41176471,61.1764706 L9.41176471,9.41176471 C9.41176471,4.21379059 13.6255553,-2.59786132e-15 18.8235294,0 Z" id="矩形" fill="#FFC76F"></path>
                        <path d="M56.4705882,56.4705882 L56.4705882,63.5294118 C56.4705882,66.6027756 58.4347236,69.217391 61.1762238,70.1864876 L61.1764706,70.5882353 L9.41176471,70.5882353 C4.21379059,70.5882353 -2.5338246e-13,66.3744447 -2.59348099e-13,61.1764706 L-2.59348099e-13,56.4705882 L56.4705882,56.4705882 Z" id="形状结合" fill="#FFDBA3"></path>
                        <rect id="矩形" fill="#FFFFFF" x="18.8235294" y="18.8235294" width="32.9411765" height="8" rx="4"></rect>
                        <rect id="矩形备份-2" fill="#FFFFFF" x="18.8235294" y="33.5294118" width="28.2352941" height="8" rx="4"></rect>
                    </g>
                </g>
            </g>
        </g>
    </g>
</svg>