<?xml version="1.0" encoding="UTF-8"?>
<svg width="181px" height="198px" viewBox="0 0 181 198" version="1.1" xmlns="http://www.w3.org/2000/svg" xmlns:xlink="http://www.w3.org/1999/xlink">
    <title>icon/任务/讨论</title>
    <defs>
        <linearGradient x1="0%" y1="8.22202209%" x2="100%" y2="75.1750883%" id="linearGradient-1">
            <stop stop-color="#F29773" offset="0%"></stop>
            <stop stop-color="#E86435" offset="100%"></stop>
        </linearGradient>
    </defs>
    <g id="2课堂" stroke="none" stroke-width="1" fill="none" fill-rule="evenodd">
        <g id="2.5.1课程-任务" transform="translate(-117.000000, -428.000000)">
            <g id="组件/任务pc备份" transform="translate(0.000000, 397.000000)">
                <g id="讨论" transform="translate(117.000000, 31.000000)">
                    <rect id="矩形备份-4" fill="#FFDACE" x="0" y="0" width="180" height="198" rx="10"></rect>
                    <text font-family="SourceHanSansCN-Regular, Source Han Sans CN" font-size="28" font-weight="normal" fill="#BB4A1F">
                        <tspan x="62.45" y="163.1">讨论</tspan>
                    </text>
                    <g id="编组-35" transform="translate(41.400000, 36.900000)">
                        <path d="M0,19.7307692 C-4.88721166e-15,8.83376628 8.83376628,2.00174697e-15 19.7307692,0 L77.4692308,0 C88.3662337,-2.00174697e-15 97.2,8.83376628 97.2,19.7307692 L97.2,57.4330562 C97.2,68.3300592 88.3662337,77.1638255 77.4692308,77.1638255 L21.908,77.163 L6.50588281,87.7451656 C4.61497392,89.0441595 2.02904671,88.5643177 0.730052729,86.6734088 C0.25454066,85.9812193 0,85.1611567 0,84.3213721 L0,19.7307692 Z" id="形状结合" fill="url(#linearGradient-1)"></path>
                        <path d="M74.3538462,8.41153846 C81.8096903,8.41153846 87.8538462,14.4556943 87.8538462,21.9115385 L87.8538462,53.7923077 C87.8538462,61.2481518 81.8096903,67.2923077 74.3538462,67.2923077 L23.7807692,67.2923077 L23.5127692,67.2885385 L16.8314434,72.0104784 C14.9577688,73.33421 12.365759,72.8883931 11.0420274,71.0147185 C10.5467133,70.3136266 10.2807692,69.4762994 10.2807692,68.6178905 L10.2807692,55.1423077 L10.3501137,55.1691093 C10.3042582,54.7164098 10.2807692,54.2571018 10.2807692,53.7923077 L10.2807692,21.9115385 C10.2807692,14.4556943 16.3249251,8.41153846 23.7807692,8.41153846 L74.3538462,8.41153846 Z" id="形状结合" fill="#FA9E7D"></path>
                        <rect id="矩形" fill="#FFFFFF" x="22.4307692" y="28.0384615" width="52.3384615" height="6.54230769"></rect>
                        <rect id="矩形" fill="#FFFFFF" x="22.4307692" y="46.7307692" width="52.3384615" height="6.54230769"></rect>
                    </g>
                </g>
            </g>
        </g>
    </g>
</svg>