<?xml version="1.0" encoding="UTF-8"?>
<svg width="44px" height="44px" viewBox="0 0 44 44" version="1.1" xmlns="http://www.w3.org/2000/svg" xmlns:xlink="http://www.w3.org/1999/xlink">
    <title>icon/评论</title>
    <g id="2课堂" stroke="none" stroke-width="1" fill="none" fill-rule="evenodd">
        <g id="2.5.2.3任务-微课+心得1" transform="translate(-705.000000, -1264.000000)" fill-rule="nonzero">
            <g id="编组-10" transform="translate(511.000000, 148.000000)">
                <g id="编组-11" transform="translate(39.000000, 1088.000000)">
                    <g id="icon/评论" transform="translate(155.000000, 28.000000)">
                        <rect id="矩形" opacity="0" x="0" y="0" width="44" height="44"></rect>
                        <path d="M35.0625,34.71875 L28.875,34.71875 C28.66875,34.71875 28.53125,34.7875 28.39375,34.925 L24.95625,38.3625 C23.375,39.94375 20.7625,39.94375 19.1125,38.3625 L15.675,34.925 C15.5375,34.7875 15.4,34.71875 15.19375,34.71875 L9.00625,34.71875 C5.98125,34.71875 3.50625,32.24375 3.50625,29.21875 L3.50625,9.96875 C3.50625,6.94375 5.98125,4.46875 9.00625,4.46875 L35.13125,4.46875 C38.15625,4.46875 40.63125,6.94375 40.63125,9.96875 L40.63125,29.21875 C40.5625,32.24375 38.0875,34.71875 35.0625,34.71875 L35.0625,34.71875 Z" id="路径" stroke="#626464" stroke-width="3"></path>
                        <path d="M13.75,17.53125 C14.91875,17.53125 15.8125,18.425 15.8125,19.59375 L15.8125,20.96875 C15.8125,22.1375 14.91875,23.03125 13.75,23.03125 C12.58125,23.03125 11.6875,22.1375 11.6875,20.96875 L11.6875,19.59375 C11.6875,18.425 12.58125,17.53125 13.75,17.53125 Z M22,17.53125 C23.16875,17.53125 24.0625,18.425 24.0625,19.59375 L24.0625,20.96875 C24.0625,22.1375 23.16875,23.03125 22,23.03125 C20.83125,23.03125 19.9375,22.1375 19.9375,20.96875 L19.9375,19.59375 C19.9375,18.425 20.83125,17.53125 22,17.53125 Z M30.25,17.53125 C31.41875,17.53125 32.3125,18.425 32.3125,19.59375 L32.3125,20.96875 C32.3125,22.1375 31.41875,23.03125 30.25,23.03125 C29.08125,23.03125 28.1875,22.1375 28.1875,20.96875 L28.1875,19.59375 C28.1875,18.425 29.08125,17.53125 30.25,17.53125 Z" id="形状" fill="#666666"></path>
                    </g>
                </g>
            </g>
        </g>
    </g>
</svg>