<?xml version="1.0" encoding="UTF-8"?>
<svg width="80px" height="80px" viewBox="0 0 80 80" version="1.1" xmlns="http://www.w3.org/2000/svg" xmlns:xlink="http://www.w3.org/1999/xlink">
    <title>图标/课堂/音频</title>
    <g id="2课堂" stroke="none" stroke-width="1" fill="none" fill-rule="evenodd">
        <g id="2.2.2课程-课中" transform="translate(-203.000000, -970.000000)">
            <g id="编组" transform="translate(0.000000, 110.000000)">
                <g id="组件/列表/讲义备份-6" transform="translate(0.000000, 840.000000)">
                    <g id="图标/课堂/ppt" transform="translate(203.000000, 20.000000)">
                        <g id="编组-26" transform="translate(0.000000, 6.000000)">
                            <circle id="椭圆形" fill="#ABE0BE" cx="50.6122449" cy="35.9183673" r="29.3877551"></circle>
                            <path d="M9.79591837,0 L60.3061224,0 C63.0675462,-5.07265313e-16 65.3061224,2.23857625 65.3061224,5 L65.3061224,63.5714286 C65.3061224,66.3328523 63.0675462,68.5714286 60.3061224,68.5714286 L9.79591837,68.5714286 C4.38578204,68.5714286 1.91500327e-15,64.1856465 0,58.7755102 L0,9.79591837 C-2.43890745e-15,4.38578204 4.38578204,2.77018276e-15 9.79591837,0 Z" id="矩形" fill="#67D58F"></path>
                            <path d="M48.9795918,46.5306122 C48.9795918,48.333991 47.5176645,49.7959184 45.7142857,49.7959184 L45.7142857,49.7959184 L42.4489796,49.7959184 C39.7439114,49.7959184 37.5510204,47.6030273 37.5510204,44.8979592 L37.5510204,44.8979592 L37.5510204,40 C37.5510204,37.2949318 39.7439114,35.1020408 42.4489796,35.1020408 L42.4489796,35.1020408 L44.0815306,35.1011837 L44.0816327,34.2857143 C44.0816327,27.9738886 38.9648869,22.8571429 32.6530612,22.8571429 C26.4727319,22.8571429 21.4382062,27.7629116 21.2311168,33.8928167 L21.2244898,34.2857143 L21.2235306,35.1011837 L22.8571429,35.1020408 C25.562211,35.1020408 27.755102,37.2949318 27.755102,40 L27.755102,44.8979592 C27.755102,47.6030273 25.562211,49.7959184 22.8571429,49.7959184 L19.5918367,49.7959184 C17.788458,49.7959184 16.3265306,48.333991 16.3265306,46.5306122 L16.3265306,34.2857143 C16.3265306,25.2688204 23.6361673,17.9591837 32.6530612,17.9591837 C41.5171264,17.9591837 48.7313171,25.023136 48.9733195,33.8287268 L48.9795918,34.2857143 Z" id="形状结合" fill="#FFFFFF" fill-rule="nonzero"></path>
                        </g>
                    </g>
                </g>
            </g>
        </g>
    </g>
</svg>