<?xml version="1.0" encoding="UTF-8"?>
<svg width="900px" height="857px" viewBox="0 0 900 857" version="1.1" xmlns="http://www.w3.org/2000/svg" xmlns:xlink="http://www.w3.org/1999/xlink">
    <title>待改进</title>
    <defs>
        <radialGradient cx="50%" cy="69.647118%" fx="50%" fy="69.647118%" r="57.1136672%" gradientTransform="translate(0.500000,0.696471),scale(0.670190,1.000000),rotate(90.000000),translate(-0.500000,-0.696471)" id="radialGradient-1">
            <stop stop-color="#FFFFFF" offset="0%"></stop>
            <stop stop-color="#FFFFFF" stop-opacity="0.93006993" offset="11.7460664%"></stop>
            <stop stop-color="#FFFFFF" stop-opacity="0" offset="100%"></stop>
        </radialGradient>
        <rect id="path-2" x="0" y="296" width="900" height="562" rx="20"></rect>
        <rect id="path-4" x="0" y="296" width="900" height="562" rx="98"></rect>
        <circle id="path-6" cx="94" cy="111" r="94"></circle>
        <circle id="path-8" cx="94" cy="111" r="87"></circle>
        <linearGradient x1="49.7206033%" y1="39.3483467%" x2="50.1236138%" y2="39.1665336%" id="linearGradient-10">
            <stop stop-color="#537CD0" offset="0%"></stop>
            <stop stop-color="#6893EC" offset="50.4256223%"></stop>
            <stop stop-color="#5C8CEF" offset="100%"></stop>
        </linearGradient>
        <linearGradient x1="4.48639315%" y1="76.5030447%" x2="96.7760586%" y2="76.5030447%" id="linearGradient-11">
            <stop stop-color="#608FEF" offset="0%"></stop>
            <stop stop-color="#82A9F9" offset="100%"></stop>
        </linearGradient>
        <polygon id="path-12" points="8 5.15155409 164 5.15155409 157.657636 192.151554 16.3473436 192.151554"></polygon>
        <filter x="-6.7%" y="-5.6%" width="113.5%" height="111.2%" filterUnits="objectBoundingBox" id="filter-13">
            <feGaussianBlur stdDeviation="10" in="SourceAlpha" result="shadowBlurInner1"></feGaussianBlur>
            <feOffset dx="0" dy="1" in="shadowBlurInner1" result="shadowOffsetInner1"></feOffset>
            <feComposite in="shadowOffsetInner1" in2="SourceAlpha" operator="arithmetic" k2="-1" k3="1" result="shadowInnerInner1"></feComposite>
            <feColorMatrix values="0 0 0 0 1   0 0 0 0 1   0 0 0 0 1  0 0 0 0.117925044 0" type="matrix" in="shadowInnerInner1"></feColorMatrix>
        </filter>
        <linearGradient x1="49.5721026%" y1="39.3483467%" x2="50.1893152%" y2="39.1665336%" id="linearGradient-14">
            <stop stop-color="#537CD0" offset="0%"></stop>
            <stop stop-color="#6893EC" offset="50.4256223%"></stop>
            <stop stop-color="#5C8CEF" offset="100%"></stop>
        </linearGradient>
        <linearGradient x1="50%" y1="0%" x2="50%" y2="100%" id="linearGradient-15">
            <stop stop-color="#F1FBFF" offset="0%"></stop>
            <stop stop-color="#A5CEF1" offset="100%"></stop>
        </linearGradient>
        <path d="M6.62925636,40.4926285 C3.35121531,40.4926285 0.69383799,37.8352511 0.69383799,34.5572101 C0.69383799,31.1187841 3.14980844,28.1710369 6.53174623,27.5503354 L33.242838,22.6467617 L150.485783,0.471761714 L152.979926,4.60463566 L152.979926,58.6245873 L9.49772201,49.5405504 L7.48058323,40.4926285 L6.62925636,40.4926285 Z" id="path-16"></path>
        <linearGradient x1="8.31108329%" y1="47.0752207%" x2="97.8501454%" y2="50%" id="linearGradient-18">
            <stop stop-color="#5B8BEF" offset="0%"></stop>
            <stop stop-color="#82A9F9" offset="100%"></stop>
        </linearGradient>
        <path d="M161.405126,40.8534505 L157.715583,151.270451 L13.5375832,151.270451 L7.48058323,40.8534505 L161.405126,40.8534505 Z" id="path-19"></path>
        <filter x="-6.8%" y="-9.5%" width="113.6%" height="119.0%" filterUnits="objectBoundingBox" id="filter-20">
            <feGaussianBlur stdDeviation="10" in="SourceAlpha" result="shadowBlurInner1"></feGaussianBlur>
            <feOffset dx="0" dy="1" in="shadowBlurInner1" result="shadowOffsetInner1"></feOffset>
            <feComposite in="shadowOffsetInner1" in2="SourceAlpha" operator="arithmetic" k2="-1" k3="1" result="shadowInnerInner1"></feComposite>
            <feColorMatrix values="0 0 0 0 1   0 0 0 0 1   0 0 0 0 1  0 0 0 0.117925044 0" type="matrix" in="shadowInnerInner1"></feColorMatrix>
        </filter>
        <path d="M36.8499344,102.129734 L36.8499344,79.0732844 L46.4910384,79.0732844 L46.4910384,71.5131081 L17.7555401,71.5131081 L17.7555401,79.0732844 L27.3966441,79.0732844 L27.3966441,102.129734 L36.8499344,102.129734 Z M55.2317568,102.129734 L56.70983,97.0756931 L67.451883,97.0756931 L68.9507741,102.129734 L78.818474,102.129734 L67.3477934,71.5131081 L57.0637348,71.5131081 L45.5930541,102.129734 L55.2317568,102.129734 Z M65.3487092,90.4233768 L59.062819,90.4233768 L62.1960336,79.617509 L65.3487092,90.4233768 Z M94.8680871,102.129734 C97.8402126,102.129734 100.30303,101.703546 102.25654,100.85117 C104.21005,99.9987941 105.730997,98.74795 106.819381,97.0986375 C107.907765,95.449325 108.451957,93.647555 108.451957,91.6933276 C108.451957,90.0301553 108.043813,88.5263704 107.227525,87.1819728 C106.411237,85.8375753 105.106571,84.711469 103.313528,83.8036542 C101.520485,82.8958393 98.5518483,81.9984193 94.4076169,81.1113941 C92.73318,80.7648998 91.6727033,80.3906861 91.2261868,79.9887528 C90.7657166,79.6006792 90.5354815,79.1640965 90.5354815,78.6790046 C90.5354815,78.0137357 90.8145543,77.4489501 91.3727,76.9846479 C91.9308456,76.5203456 92.7610873,76.2881945 93.8634249,76.2881945 C95.2029745,76.2881945 96.252986,76.6000393 97.0134594,77.2237289 C97.7739328,77.8474185 98.2727755,78.8453218 98.5099874,80.217439 L98.5099874,80.217439 L107.447295,79.6976976 C107.056593,76.5376703 105.832161,74.2334837 103.773999,72.7851379 C101.715836,71.336792 98.7262688,70.6126191 94.8052957,70.6126191 C91.6099119,70.6126191 89.0947681,71.0110875 87.2598643,71.8080242 C85.4249605,72.6049609 84.0505268,73.6998826 83.1365633,75.0927894 C82.2225998,76.4856962 81.7656181,77.9652265 81.7656181,79.5313804 C81.7656181,81.9152606 82.6586511,83.8764179 84.4447172,85.4148523 C86.2168296,86.9532866 89.1819783,88.1868061 93.3401634,89.1154106 C95.8797261,89.6698014 97.4983484,90.2588415 98.1960305,90.8825311 C98.8937125,91.5062207 99.2425536,92.213069 99.2425536,93.0030758 C99.2425536,93.8346619 98.8762705,94.5657647 98.1437043,95.1963842 C97.4111382,95.8270037 96.3681035,96.1423134 95.0146003,96.1423134 C93.200627,96.1423134 91.8052629,95.5255537 90.828508,94.2920343 C90.2285014,93.529747 89.8308226,92.4209655 89.6354717,90.9656897 L89.6354717,90.9656897 L80.6144427,91.5270104 C80.8795619,94.6038791 82.0167836,97.1402168 84.0261079,99.1360235 C86.0354323,101.13183 89.6494253,102.129734 94.8680871,102.129734 Z M123.263497,102.129734 L123.263497,94.6530952 L128.131335,89.5364013 L134.559377,102.129734 L146.167298,102.129734 L134.559377,83.0622172 L145.668033,71.5131081 L133.144792,71.5131081 L123.263497,83.0831016 L123.263497,71.5131081 L113.839863,71.5131081 L113.839863,102.129734 L123.263497,102.129734 Z" id="path-21"></path>
        <filter x="-5.5%" y="-15.9%" width="110.9%" height="144.4%" filterUnits="objectBoundingBox" id="filter-22">
            <feOffset dx="0" dy="2" in="SourceAlpha" result="shadowOffsetOuter1"></feOffset>
            <feGaussianBlur stdDeviation="2" in="shadowOffsetOuter1" result="shadowBlurOuter1"></feGaussianBlur>
            <feColorMatrix values="0 0 0 0 0.260317913   0 0 0 0 0.440591613   0 0 0 0 0.707738904  0 0 0 1 0" type="matrix" in="shadowBlurOuter1"></feColorMatrix>
        </filter>
        <linearGradient x1="2.41944983%" y1="50%" x2="50%" y2="50%" id="linearGradient-23">
            <stop stop-color="#8EB2EB" offset="0%"></stop>
            <stop stop-color="#719DE4" offset="100%"></stop>
        </linearGradient>
        <filter x="-27.5%" y="-102.4%" width="154.9%" height="304.8%" filterUnits="objectBoundingBox" id="filter-24">
            <feGaussianBlur stdDeviation="11" in="SourceGraphic"></feGaussianBlur>
        </filter>
        <linearGradient x1="50%" y1="0%" x2="50%" y2="100%" id="linearGradient-25">
            <stop stop-color="#6D98F2" offset="0%"></stop>
            <stop stop-color="#5B85DC" offset="46.8558785%"></stop>
            <stop stop-color="#4979CC" offset="69.370083%"></stop>
            <stop stop-color="#6396F7" offset="100%"></stop>
        </linearGradient>
        <linearGradient x1="42.7224558%" y1="14.444487%" x2="67.9517241%" y2="99.1212611%" id="linearGradient-26">
            <stop stop-color="#F0FAFF" offset="0%"></stop>
            <stop stop-color="#AEBAC7" offset="100%"></stop>
        </linearGradient>
        <linearGradient x1="50%" y1="0%" x2="50%" y2="100%" id="linearGradient-27">
            <stop stop-color="#FFFFFF" offset="0%"></stop>
            <stop stop-color="#FFFFFF" offset="35.1960153%"></stop>
            <stop stop-color="#6FBDE8" offset="67.3259602%"></stop>
            <stop stop-color="#CDF9FF" offset="100%"></stop>
        </linearGradient>
    </defs>
    <g id="2课堂" stroke="none" stroke-width="1" fill="none" fill-rule="evenodd">
        <g id="2.4.3.7堂测详情-待改进" transform="translate(-510.000000, 0.000000)">
            <g id="满分奖励" transform="translate(510.000000, -0.848446)">
                <g id="编组-17" transform="translate(107.437403, 52.000000)">
                    <path d="M383.562597,0.84844591 L347.500597,332.479446 L468.024657,22.6307471 L529.119309,52.5250344 L348.970597,339.309446 L351.032597,339.063446 L592.860241,107.363287 L635.637683,160.359989 L356.010597,341.017446 L670.771768,240.346798 L686.062597,306.793002 L355.935597,346.173446 L683.055094,394.152242 L667.764264,460.598446 L352.541597,350.354446 L354.023706,351.852579 L351.098597,349.849446 L349.489597,349.286446 L351.509949,354.923188 L347.833597,348.707446 L345.811597,348.000446 L344.742408,357.848446 L343.999597,348.778446 L342.356597,349.840446 L338.130973,356.568243 L340.207597,351.228446 L334.463757,354.94034 L341.319597,348.370446 L341.504597,347.895446 L330.346013,349.22743 L340.255597,346.057446 L336.379597,344.701446 L15.3534267,447.379068 L0.0625972067,380.932864 L330.186597,341.550446 L3.07106848,293.573848 L18.3618979,227.127644 L332.139597,336.866446 L58.9143488,149.758871 L101.691791,96.7621696 L342.392597,340.094446 L342.716597,340.055446 L169.183018,46.6418579 L230.277671,16.7475706 L342.433597,329.606446 L315.562597,0.84844591 L383.562597,0.84844591 Z M341.187597,343.164446 L339.372597,343.744446 L342.916597,344.264446 L342.922597,344.250446 L341.377597,343.192446 L341.187597,343.164446 Z M349.542597,340.492446 L347.897597,341.018446 L347.197597,342.132446 L347.661597,342.294446 L349.542597,340.492446 Z" id="形状结合" fill="url(#radialGradient-1)"></path>
                    <g id="编组-21" transform="translate(144.562597, 50.848446)" fill="#FFFFFF">
                        <path d="M157.64898,94 C159.273232,101.016669 161.12595,105.555671 163.207136,107.617005 C165.288322,109.678339 169.219276,111.363423 175,112.672255 C168.367031,113.652716 163.887792,115.29461 161.562283,117.597937 C159.236774,119.901264 157.549346,124.368618 156.5,131 C155.8461,124.17601 154.453627,119.708656 152.322581,117.597937 C150.191534,115.487218 145.417341,113.845324 138,112.672255 C145.363706,111.465931 150.137899,109.780848 152.322581,107.617005 C154.507262,105.453162 156.282729,100.914161 157.64898,94 Z" id="多边形"></path>
                        <path d="M391.64898,113 C393.273232,120.016669 395.12595,124.555671 397.207136,126.617005 C399.288322,128.678339 403.219276,130.363423 409,131.672255 C402.367031,132.652716 397.887792,134.29461 395.562283,136.597937 C393.236774,138.901264 391.549346,143.368618 390.5,150 C389.8461,143.17601 388.453627,138.708656 386.322581,136.597937 C384.191534,134.487218 379.417341,132.845324 372,131.672255 C379.363706,130.465931 384.137899,128.780848 386.322581,126.617005 C388.507262,124.453162 390.282729,119.914161 391.64898,113 Z" id="多边形备份-3"></path>
                        <path d="M12.2142311,170 C13.2239008,174.361713 14.3755907,177.183255 15.6693008,178.464625 C16.9630108,179.745995 19.4065772,180.793479 23,181.607078 C18.876803,182.216553 16.0924112,183.23719 14.6468244,184.668988 C13.2012377,186.100786 12.1522962,188.87779 11.5,193 C11.0935217,188.758061 10.2279303,185.981057 8.90322581,184.668988 C7.57852133,183.356919 4.6107794,182.336282 0,181.607078 C4.5774386,180.8572 7.54518054,179.809716 8.90322581,178.464625 C10.2612711,177.119533 11.3649395,174.297992 12.2142311,170 Z" id="多边形备份-4"></path>
                        <path d="M24.8073917,74 C25.9487575,78.9306323 27.2506678,82.1202011 28.7131226,83.5687061 C30.1755775,85.0172112 32.9378699,86.2013239 37,87.1210443 C32.3389947,87.8100167 29.1914213,88.96378 27.5572798,90.5823341 C25.9231382,92.2008882 24.7373783,95.3401102 24,100 C23.5405028,95.2047641 22.5620081,92.0655422 21.0645161,90.5823341 C19.5670241,89.0991261 16.2121854,87.9453628 11,87.1210443 C16.1744958,86.273357 19.5293345,85.0892443 21.0645161,83.5687061 C22.5996977,82.048168 23.8473229,78.8585993 24.8073917,74 Z" id="多边形备份"></path>
                        <path d="M280.965803,0 C281.624283,2.84459559 282.375385,4.68473138 283.219109,5.52040739 C284.062833,6.35608339 285.656463,7.03922534 288,7.56983323 C285.310958,7.96731734 283.495051,8.63295001 282.552277,9.56673123 C281.609503,10.5005125 280.925411,12.311602 280.5,15 C280.234905,12.2335178 279.670389,10.4224282 278.806452,9.56673123 C277.942514,8.71103428 276.00703,8.04540161 273,7.56983323 C275.985286,7.08078288 277.92077,6.39764093 278.806452,5.52040739 C279.692133,4.64317385 280.411917,2.80303805 280.965803,0 Z" id="多边形备份-2"></path>
                    </g>
                </g>
                <mask id="mask-3" fill="white">
                    <use xlink:href="#path-2"></use>
                </mask>
                <use id="蒙版" fill="#C7C7C8" xlink:href="#path-2"></use>
                <mask id="mask-5" fill="white">
                    <use xlink:href="#path-4"></use>
                </mask>
                <use id="蒙版" fill="#FFFFFF" xlink:href="#path-4"></use>
                <g transform="translate(357.000000, 185.000000)">
                    <mask id="mask-7" fill="white">
                        <use xlink:href="#path-6"></use>
                    </mask>
                    <use id="蒙版" fill="#FFFFFF" xlink:href="#path-6"></use>
                    <mask id="mask-9" fill="white">
                        <use xlink:href="#path-8"></use>
                    </mask>
                    <use id="蒙版" fill="#CCC8C7" xlink:href="#path-8"></use>
                    <g id="编组-5" mask="url(#mask-9)">
                        <g transform="translate(11.000000, 7.848446)">
                            <path d="M0,0.15155409 L8.45644807,187.424847 C8.57585254,190.069133 10.7544285,192.151554 13.4014092,192.151554 L17,192.151554 L17,192.151554 L8.66988562,5.23077549 L0,0.15155409 Z" id="路径-40" fill="url(#linearGradient-10)" fill-rule="evenodd"></path>
                            <g id="矩形" fill="none">
                                <use fill="url(#linearGradient-11)" fill-rule="evenodd" xlink:href="#path-12"></use>
                                <use fill="black" fill-opacity="1" filter="url(#filter-13)" xlink:href="#path-12"></use>
                            </g>
                        </g>
                    </g>
                    <g id="编组-19" transform="translate(0.000000, 0.848446)">
                        <g id="编组-5" transform="translate(11.000000, 0.151554)">
                            <path d="M0.69383799,35.4935486 L9.39519128,40.5914109 L13.569838,152.999549 L7.15683799,152.999549 L0.69383799,35.4935486 Z" id="形状结合" fill="url(#linearGradient-14)"></path>
                            <g id="路径-39" transform="translate(0.000000, 0.360822)">
                                <mask id="mask-17" fill="white">
                                    <use xlink:href="#path-16"></use>
                                </mask>
                                <use id="蒙版" fill="url(#linearGradient-15)" xlink:href="#path-16"></use>
                                <path d="M14.8156799,38.3362086 C11.0421279,38.2183814 8.59709565,37.4033031 7.48058323,35.8909739 C6.36407081,34.3786447 7.0364504,33.0135104 9.49772201,31.795571 L9.49772201,31.795571 L152.979926,4.43277232 L152.979926,4.43277232 L150.115272,0 L-8.97984323,30.4950635 C-3.46485084,38.406797 1.03448625,42.9481981 4.51816806,44.1192666 C8.00184987,45.2903352 11.4343538,43.3626492 14.8156799,38.3362086 Z" fill="#8EB2EB" mask="url(#mask-17)"></path>
                            </g>
                            <g id="形状结合">
                                <use fill="url(#linearGradient-18)" fill-rule="evenodd" xlink:href="#path-19"></use>
                                <use fill="black" fill-opacity="1" filter="url(#filter-20)" xlink:href="#path-19"></use>
                            </g>
                            <g id="TASK" fill-rule="nonzero">
                                <use fill="black" fill-opacity="1" filter="url(#filter-22)" xlink:href="#path-21"></use>
                                <use fill="#F2F5FB" xlink:href="#path-21"></use>
                            </g>
                            <polygon id="路径" fill="url(#linearGradient-23)" points="7.48058323 38.1519836 157.124418 38.6970306 161.405126 40.8534505 7.48058323 40.8534505"></polygon>
                        </g>
                        <g id="编组-13" transform="translate(0.000000, 71.151554)">
                            <path d="M121.993694,62.0290591 L121.993559,62.4200591 L198.9212,62.4209012 C207.669319,62.4209012 214.76107,69.5126523 214.76107,78.2607705 C214.76107,86.482917 208.496451,93.2418834 200.479972,94.0249133 L200.479927,94.2543024 L197.042176,94.2543024 L197.041559,94.1000591 L121.941792,94.1006398 L121.941559,93.6790591 L99.1315587,80.8380591 L97.1231862,80.8390115 C95.7045724,80.8390115 94.5545587,79.6889978 94.5545587,78.270384 C94.5545587,76.8517703 95.7045724,75.7017566 97.1231862,75.7017566 L98.0461483,75.7011199 C98.0082844,75.6583602 97.9695298,75.6163794 97.9299127,75.5752051 L121.993694,62.0290591 Z" id="形状结合" fill="#024C4A" opacity="0.14780971" style="mix-blend-mode: multiply;" filter="url(#filter-24)" transform="translate(154.657814, 78.141681) rotate(-43.000000) translate(-154.657814, -78.141681) "></path>
                            <g id="编组" transform="translate(154.709638, 58.488708) rotate(-45.000000) translate(-154.709638, -58.488708) translate(89.822087, 40.508316)">
                                <path d="M29.6244664,0.478507881 L112.195063,0.478507881 C121.652488,0.478507881 129.319246,8.14526576 129.319246,17.6026909 C129.319246,27.060116 121.652488,34.7268739 112.195063,34.7268739 L29.6244664,34.7268739 L29.6244664,34.7268739 L29.6244664,0.478507881 Z" id="矩形" fill="url(#linearGradient-25)"></path>
                                <rect id="矩形" fill="#5E6F9D" x="0.425813023" y="15.6394947" width="8.59437751" height="5.1372549" rx="2.56862745"></rect>
                                <path d="M29.7688533,1.08393918 L29.7688533,35.3323052 L4.57466931,21.0220726 C4.97377345,20.3604662 5.20308292,19.5869858 5.20308292,18.7605152 C5.20308292,17.5867716 4.74058093,16.5199058 3.98605261,15.7285858 L29.7688533,1.08393918 Z" id="形状结合" fill="url(#linearGradient-26)"></path>
                                <rect id="矩形" fill="url(#linearGradient-27)" x="110.569551" y="0.478507881" width="3.437751" height="34.248366"></rect>
                            </g>
                            <g id="编组-12" transform="translate(0.000000, 53.471797)">
                                <rect id="矩形备份-4" fill="#E9F3FF" x="0" y="0" width="68.6645529" height="48.561677" rx="6.6"></rect>
                                <rect id="矩形" fill="#6899F6" opacity="0.573986235" x="9.95138449" y="14.3702922" width="39.8055379" height="3.96421853" rx="1.98210927"></rect>
                                <rect id="矩形备份-5" fill="#6899F6" opacity="0.573986235" x="9.95138449" y="24.2808385" width="24.8784612" height="3.96421853" rx="1.98210927"></rect>
                                <rect id="矩形备份-6" fill="#6899F6" opacity="0.573986235" x="9.95138449" y="34.1913848" width="24.8784612" height="3.96421853" rx="1.98210927"></rect>
                            </g>
                        </g>
                    </g>
                </g>
            </g>
        </g>
    </g>
</svg>