<?xml version="1.0" encoding="UTF-8"?>
<svg width="40px" height="40px" viewBox="0 0 40 40" version="1.1" xmlns="http://www.w3.org/2000/svg" xmlns:xlink="http://www.w3.org/1999/xlink">
    <title>临时功能/icon/奖励</title>
    <g id="临时功能/icon/奖励" stroke="none" stroke-width="1" >
        <g id="编组"  >
            <path d="M22.5556501,2 L22.7250225,2.00942857 C23.4526709,2.09069338 24.3893349,2.46665266 25.2818415,3.34200569 C27.2922531,5.31377815 27.9722897,8.83837799 26.8944991,14.2172117 L26.8081178,14.6346305 L26.7714157,14.7986764 L33.2972318,14.7986382 C33.6839526,14.781394 34.1140498,14.8182685 34.5623532,14.9501742 L34.7879055,15.0242357 L35.0157931,15.1152722 C36.1706465,15.6194766 36.9222446,16.6687231 36.9943088,18.1577875 L37,18.3965426 L36.994595,18.5648785 L36.9765388,18.850635 L36.9458099,19.1856503 L36.9014604,19.5713224 L36.8425422,20.009049 L36.7681072,20.5002283 L36.6772073,21.046258 L36.5688945,21.6485361 L36.4381505,22.3287568 L36.2860557,23.0731073 L36.1169045,23.85691 L35.9303436,24.6807117 L35.7260196,25.5450595 L35.5035793,26.4505004 L35.2626693,27.3975813 L35.0029363,28.3868493 L34.7240271,29.4188514 L34.4255882,30.4941345 L34.1072665,31.6132457 L33.7687086,32.7767319 L33.640858,33.1607818 C33.494073,33.5758301 33.2909194,34.0755992 33.0353106,34.5856217 C32.3222784,36.0083526 31.5470375,36.9161007 30.3164227,36.9993267 L30.128366,37.005588 L17.3439043,37.005588 C15.9069894,37.005588 14.3367893,36.4376911 13.4270134,35.3479488 C13.3656624,35.5739407 13.2599994,35.8057337 13.0970493,36.0354669 C12.6897444,36.6097005 12.0444726,36.9503914 11.2699255,36.9994076 L11.0736584,37.005588 L6.61291918,37.004807 C6.22344253,36.9940068 5.78770819,36.9053987 5.3380392,36.656012 C4.60311506,36.2484226 4.1197975,35.5227108 4.06098248,34.6734334 L4.05493976,34.489625 L3.00271618,17.4579862 L3,17.3399519 C3.00544031,16.9931708 3.08189187,16.5807568 3.31419092,16.1380727 C3.71083923,15.3821941 4.44127853,14.8755145 5.38808813,14.8113167 L5.5942449,14.8044031 L10.7142717,14.8045237 C11.1340654,14.8092589 11.6125751,14.899051 12.1063656,15.1658898 C12.3081499,15.2749318 12.4924357,15.4060214 12.656348,15.5572857 L12.6550526,15.554265 L13.3422823,15.0462494 L13.621216,14.8231156 L14.003962,14.4964563 C14.0516696,14.4545811 14.1010062,14.4108746 14.1518739,14.3653655 C14.8393697,13.7502929 15.5280361,13.0477235 16.1679326,12.2744173 C17.8582624,10.2316771 18.8839971,8.09871077 18.9737533,6.00263301 L18.9801791,5.703458 L18.9801791,5.29681199 L19.0437737,5.18592106 L19.0509714,5.08378902 C19.0695875,4.841384 19.0898432,4.67089784 19.1282344,4.49212481 L19.160686,4.35523802 L19.201485,4.20772437 C19.5856644,2.89582294 20.6720897,2.07372425 22.3265356,2.00471738 L22.5556501,2 Z M12.8494206,17.6761372 C11.9300197,17.6761372 11.184698,18.4214589 11.184698,19.3408597 L11.184698,19.3408597 L11.184698,30.9939175 C11.184698,31.9133183 11.9300197,32.65864 12.8494206,32.65864 C13.7688214,32.65864 14.5141431,31.9133183 14.5141431,30.9939175 L14.5141431,30.9939175 L14.5141431,19.3408597 C14.5141431,18.4214589 13.7688214,17.6761372 12.8494206,17.6761372 Z" id="形状结合"></path>
        </g>
    </g>
</svg>