<?xml version="1.0" encoding="UTF-8"?>
<svg width="40px" height="40px" viewBox="0 0 40 40" version="1.1" xmlns="http://www.w3.org/2000/svg" xmlns:xlink="http://www.w3.org/1999/xlink">
    <title>临时功能/icon/向右旋转</title>
    <g id="临时功能/icon/向右旋转" stroke="none" stroke-width="1" fill="none" fill-rule="evenodd">
        <g id="编组-2" transform="translate(21.500000, 20.200000) scale(-1, 1) translate(-21.500000, -20.200000) translate(5.000000, 7.000000)">
            <path d="M19.6950166,26.4 C26.9851753,26.4 32.8950166,20.4901587 32.8950166,13.2 C32.8950166,5.9098413 26.9851753,0 19.6950166,0 C12.4048579,0 6.4950166,5.9098413 6.4950166,13.2" id="路径" stroke="#FFFFFF" stroke-width="4" stroke-linecap="round"></path>
            <path d="M2.03046246,13.388173 L11.1153986,13.388173 C11.6676834,13.388173 12.1153986,13.8358882 12.1153986,14.388173 C12.1153986,14.6157556 12.0377701,14.8365308 11.8953357,15.0140309 L7.25613237,20.7953539 C6.91048058,21.2261013 6.28108472,21.2950849 5.85033736,20.9494331 C5.78812153,20.8995082 5.73210289,20.8423183 5.68347596,20.7790828 L1.23774314,14.9977598 C0.901077639,14.559953 0.983068854,13.9321192 1.42087564,13.5954537 C1.59566282,13.4610455 1.80997183,13.388173 2.03046246,13.388173 Z" id="路径-4" fill="#FFFFFF"></path>
        </g>
    </g>
</svg>