<?xml version="1.0" encoding="UTF-8"?>
<svg width="40px" height="40px" viewBox="0 0 40 40" version="1.1" xmlns="http://www.w3.org/2000/svg" xmlns:xlink="http://www.w3.org/1999/xlink">
    <title>人物头像/男学生</title>
    <defs>
        <circle id="path-1" cx="20" cy="20" r="20"></circle>
        <circle id="path-3" cx="20" cy="20" r="20"></circle>
    </defs>
    <g id="2课堂" stroke="none" stroke-width="1" fill="none" fill-rule="evenodd">
        <g id="2.4.6.2主观题详情-学生答案" transform="translate(-153.000000, -171.000000)">
            <g id="答题/学生列表-当前已改" transform="translate(130.000000, 151.000000)">
                <g id="人物头像/圆-男1" transform="translate(23.000000, 20.000000)">
                    <mask id="mask-2" fill="white">
                        <use xlink:href="#path-1"></use>
                    </mask>
                    <use id="蒙版" fill="#91CBB8" xlink:href="#path-1"></use>
                    <mask id="mask-4" fill="white">
                        <use xlink:href="#path-3"></use>
                    </mask>
                    <use id="蒙版" fill="#F0F1F0" xlink:href="#path-3"></use>
                    <g id="编组" mask="url(#mask-4)">
                        <g transform="translate(8.925620, 5.619835)" id="人物头像/男1">
                            <g id="编组-2备份" transform="translate(0.640295, 0.962567)">
                                <path d="M10.3736236,24.3850267 L10.4359728,24.3850267 C15.9883543,24.3850267 20.4894488,28.8861212 20.4894488,34.4385027 L20.4894488,34.4385027 L20.4894488,34.4385027 L0.320147637,34.4385027 C0.320147637,28.8861212 4.82124213,24.3850267 10.3736236,24.3850267 Z" id="矩形" fill="#22AD7E"></path>
                                <path d="M10.4143486,26.818349 L10.3334593,26.818349 C9.17712856,26.818349 8.23958638,26.1366793 8.23958638,25.2958543 L8.23958638,22.8611297 L12.5082215,22.8611297 L12.5082215,25.2958543 C12.5082215,26.1366793 11.5707869,26.818349 10.4143486,26.818349" id="Fill-7" fill="#FFDED0"></path>
                                <g id="编组" transform="translate(0.000000, 2.005515)">
                                    <ellipse id="椭圆形" fill="#FFDED0" cx="19.0487844" cy="12.6203102" rx="1.65409612" ry="1.97860963"></ellipse>
                                    <ellipse id="椭圆形备份-3" fill="#FFDED0" cx="1.65409612" cy="12.6203102" rx="1.65409612" ry="1.97860963"></ellipse>
                                    <path d="M10.2938007,0.106951872 C15.3895406,0.106951872 19.5205494,4.2459893 19.5205494,9.35176471 C19.5521319,9.82842365 19.4879421,12.0855615 19.1555003,13.1550802 C18.8230584,14.2245989 17.8889043,16.9719368 16.4342454,18.5561497 C14.9355059,20.1883691 12.4015057,21.6042781 10.1604722,21.6042781 C7.91943874,21.6042781 5.86696319,20.3840913 4.22792966,18.5561497 C2.57940723,16.7176257 2.07532895,14.5816487 1.71047751,13.3326473 C1.34562607,12.0836458 1.06715879,10.6638503 1.06715879,9.35176471 C1.06715879,4.2459893 5.19806085,0.106951872 10.2938007,0.106951872 Z" id="face" stroke="#F8D5CA" stroke-width="0.5" fill="#FEE6DC"></path>
                                    <path d="M10.2938007,0.0534759358 C5.16859496,0.0534759358 1.01380085,4.21645247 1.01380085,9.35176471 C1.01380085,10.5308838 1.23705698,11.8707936 1.62643729,13.2340191 L1.88544503,14.1347403 L1.94472387,14.333804 C2.02303561,14.5929563 2.09912982,14.8289195 2.18127761,15.0641912 C2.4464395,15.8236162 2.75384542,16.5099442 3.14069335,17.1608355 C3.44456723,17.6721187 3.79135979,18.149268 4.18824215,18.5918933 C5.94260411,20.5484555 8.01784181,21.657754 10.1604722,21.657754 C12.2877749,21.657754 14.8522639,20.3579959 16.4735082,18.5923613 C17.5894995,17.3769782 18.4523308,15.5123315 19.1120924,13.4688261 L19.175308,13.2705249 C19.1857389,13.2373869 19.1961173,13.2042064 19.2064436,13.1709852 C19.2768288,12.9445444 19.3382002,12.6509995 19.389777,12.3189559 L19.4086577,12.1926908 C19.4178669,12.1287118 19.4267284,12.063505 19.4352369,11.9972591 L19.451782,11.8634374 L19.4673767,11.7271798 C19.4698961,11.7042858 19.4723756,11.6813043 19.4748149,11.6582423 L19.4889671,11.5189592 L19.5021462,11.3780782 L19.5143429,11.2359346 C19.5162934,11.2121573 19.5182025,11.1883415 19.5200701,11.164494 L19.5307763,11.0210848 C19.5324772,10.9971385 19.5341362,10.9731746 19.5357531,10.9492 L19.5449481,10.8052795 L19.5531243,10.6614372 L19.5602724,10.5180083 L19.5663834,10.3753281 C19.567315,10.351629 19.5682029,10.3279752 19.5690471,10.3043734 L19.5735851,10.1634446 C19.5749216,10.1167142 19.5760815,10.0702482 19.5770631,10.0241025 L19.5794719,9.88668227 C19.5800957,9.84123308 19.5805397,9.79616009 19.5809831,9.75151915 L19.5809831,9.61977914 L19.5804456,9.55351202 L19.5787777,9.464758 L19.5761082,9.38985844 C19.5754064,9.37484334 19.5746331,9.36094438 19.5737901,9.34822146 C19.5739074,4.21647268 15.4190267,0.0534759358 10.2938007,0.0534759358 Z M10.2938007,0.160427807 C15.3600953,0.160427807 19.4671915,4.27554673 19.4671915,9.35176471 L19.4685138,9.3742626 L19.4707653,9.42497575 L19.4724828,9.48305509 L19.4736542,9.54819221 L19.4743446,9.62007873 L19.4743446,9.68485419 C19.4743446,9.72866917 19.4740028,9.77294664 19.473562,9.8176304 L19.4717031,9.95284437 L19.4687781,10.0901589 C19.4676265,10.1362431 19.4662988,10.1826211 19.4647968,10.2292368 L19.4597691,10.3697409 C19.4588445,10.3932584 19.4578768,10.4168212 19.456866,10.4404224 L19.4502875,10.5824335 L19.4426875,10.7250279 L19.434076,10.8678682 L19.4244628,11.0106173 L19.413858,11.1529381 L19.4022715,11.2944932 L19.3897131,11.4349457 L19.376193,11.5739581 L19.3617209,11.7111934 C19.3592301,11.7338991 19.3567001,11.7565167 19.354131,11.7790392 L19.3382497,11.9129765 L19.3214414,12.0442937 L19.303716,12.1726536 C19.2976557,12.2149098 19.2914443,12.256617 19.2850833,12.2977189 L19.2655535,12.4191525 C19.2622243,12.43907 19.2588581,12.4588222 19.2554552,12.478402 L19.2345981,12.5937558 C19.1955575,12.8012389 19.1521186,12.9861621 19.104557,13.1391752 L19.0423872,13.3366763 C19.0319209,13.3695083 19.0214021,13.4022964 19.0108308,13.4350387 L18.9467695,13.6309271 C18.2998132,15.5839947 17.4621051,17.3577761 16.3949825,18.5199381 C14.7927152,20.2649057 12.2555759,21.5508021 10.1604722,21.5508021 C8.05124392,21.5508021 6.00322581,20.4560536 4.26761717,18.5204062 C3.87549913,18.0830943 3.5327892,17.6115622 3.23237694,17.1061034 C2.84949345,16.4618825 2.5449534,15.7819529 2.28200437,15.0288656 C2.20038316,14.7951021 2.12472655,14.5604925 2.04680855,14.3026376 L1.95698707,13.9984186 L1.76168605,13.3176223 C1.35469125,11.9243509 1.12051673,10.5523391 1.12051673,9.35176471 C1.12051673,4.27552614 5.22752674,0.160427807 10.2938007,0.160427807 Z" id="face" fill="#F8D5CA" fill-rule="nonzero"></path>
                                </g>
                                <path d="M14.2999278,1.45383332 C14.5198663,1.19995096 14.7576918,0.715339856 15.0134044,0 C16.0343434,1.08831109 16.4602298,1.97071975 16.2910638,2.64722599 C17.0268134,2.61157537 17.7688587,2.61157537 18.5171997,2.64722599 C17.6265709,3.28316932 17.1812565,3.60114099 17.1812565,3.60114099 C17.1812565,3.60114099 20.0625853,5.97556824 20.0625853,9.98080888 C20.0625853,11.5792544 19.9923915,12.2332043 19.5642434,13.5028517 C18.0722487,12.1550817 17.3946883,11.0168505 17.1812565,9.04751027 C17.0639519,9.20315295 9.33096812,11.6900839 4.74885662,7.77768273 C4.5887828,10.2846758 3.92044022,11.6900839 1.34079965,14.4000665 C1.34079965,14.4000665 0.716097896,11.8708515 0.535727811,10.7356514 C0.355357727,9.60045127 0.628998584,7.54310151 1.34079965,5.6943221 C4.07298566,-0.326742644 12.5082215,0 14.2999278,1.45383332 Z" id="Fill-25" fill="#3F4140"></path>
                            </g>
                        </g>
                    </g>
                </g>
            </g>
        </g>
    </g>
</svg>