<?xml version="1.0" encoding="UTF-8"?>
<svg width="20px" height="20px" viewBox="0 0 20 20" version="1.1" xmlns="http://www.w3.org/2000/svg" xmlns:xlink="http://www.w3.org/1999/xlink">
    <title>当前数据</title>
    <g id="2课堂" stroke="none" stroke-width="1" fill="none" fill-rule="evenodd">
        <g id="2.8.1课堂-分层" transform="translate(-1218.000000, -525.000000)" fill="#22AD7E">
            <g id="编组-7" transform="translate(1206.000000, 485.000000)">
                <g id="编组-5" transform="translate(12.000000, 40.000000)">
                    <path d="M10.6856905,1.9317251 L10.7867088,2.01094311 L18.8539357,9.06976664 C19.3539028,9.50723786 19.387234,10.262326 18.9539291,10.7421461 L18.8539357,10.8405353 L10.7867088,17.8993589 C10.2977246,18.3272201 9.55447441,18.2776701 9.12661317,17.7886858 C8.72727602,17.3323005 8.74381711,16.6544214 9.14535974,16.2181988 L9.23728622,16.1285902 L16.292,9.955 L9.23728622,3.78171181 C8.7809009,3.38237465 8.70731165,2.70829872 9.04739516,2.22263444 L9.12661317,2.12161616 C9.52595033,1.66523084 10.2000263,1.59164158 10.6856905,1.9317251 Z M2.28090508,1.81470963 C2.54804802,1.81470963 2.80723685,1.90562817 3.01584043,2.07251103 L11.7208039,9.0364818 C12.2281709,9.44237539 12.3104313,10.1827194 11.9045377,10.6900863 C11.8502651,10.7579272 11.7886447,10.8195475 11.7208039,10.8738202 L3.01584043,17.8377909 C2.50847345,18.2436845 1.76812948,18.1614241 1.3622359,17.6540571 C1.19535303,17.4454535 1.1044345,17.1862647 1.1044345,16.9191218 L1.1044345,2.99118022 C1.1044345,2.34143346 1.63115832,1.81470963 2.28090508,1.81470963 Z" id="形状结合"></path>
                </g>
            </g>
        </g>
    </g>
</svg>