<?xml version="1.0" encoding="UTF-8"?>
<svg width="40px" height="40px" viewBox="0 0 40 40" version="1.1" xmlns="http://www.w3.org/2000/svg" xmlns:xlink="http://www.w3.org/1999/xlink">
    <title>临时功能/icon/查看小组</title>
    <g id="临时功能/icon/查看小组" stroke="none" stroke-width="1" fill="none" fill-rule="evenodd">
        <g id="编组" fill="#FFFFFF" fill-rule="nonzero">
            <path d="M17.83775,29.767 L17.83775,35.401011 L4.15775,35.401011 C2.97240593,35.404743 2.00743353,34.4488267 2,33.2635 L2,29.767 C2,24.25 5.051,21.127 10.6175,21.127 L17.8355,21.127 C20.0315,21.127 21.86975,21.352 23.52125,22.531 C19.99775,22.9315 17.84225,26.0905 17.84225,29.767 L17.83775,29.767 Z M14.95775,18.274 C10.982,18.274 7.75775,15.079 7.75775,11.137 C7.75775,7.19275 10.98425,4 14.95775,4 C18.93575,4 22.16,7.195 22.16,11.137 C22.16,15.07675 18.938,18.274 14.96,18.274 L14.95775,18.274 L14.95775,18.274 Z M29.35775,21.1270507 C27.5624091,21.1289743 25.9008115,20.1782663 24.99275,18.6295 C24.09275,17.08375 24.09275,15.17575 24.99275,13.63225 C25.8989053,12.0812664 27.5614604,11.1291536 29.35775,11.1324912 C32.14325,11.1324912 34.39775,13.369 34.39775,16.12975 C34.3923912,17.4608686 33.8583068,18.7353044 32.9130559,19.6725376 C31.9678049,20.6097708 30.688866,21.13298 29.35775,21.1270507 L29.35775,21.1270507 Z M32.21075,23.9845 C36.1865,23.9845 38,25.75075 38,29.69275 L38,33.26125 C38,34.4425 37.0325,35.401 35.84,35.401 L19.99775,35.401 L19.99775,29.69275 C19.99775,25.75075 22.3985,23.98675 26.37425,23.98675 L32.21075,23.98675 L32.21075,23.9845 Z" id="形状"></path>
        </g>
    </g>
</svg>