<?xml version="1.0" encoding="UTF-8"?>
<svg width="40px" height="40px" viewBox="0 0 40 40" version="1.1" xmlns="http://www.w3.org/2000/svg" xmlns:xlink="http://www.w3.org/1999/xlink">
    <title>临时功能/icon/查看班级</title>
    <g id="临时功能/icon/查看班级" stroke="none" stroke-width="1" fill="none" fill-rule="evenodd">
        <g id="编组" fill="#FFFFFF" fill-rule="nonzero">
            <path d="M27.226347,36.3076081 C27.4268218,36.319091 27.6226662,36.2444584 27.7646557,36.102469 C27.9066451,35.9604795 27.9812777,35.7646352 27.9697948,35.5641603 L27.9697948,24.2949769 C28.0529416,21.253257 25.7113246,18.6924849 22.6743186,18.5038899 L17.0919763,18.5038899 C14.0569741,18.6925937 11.719213,21.2554555 11.8095308,24.2949769 L11.8095308,35.5641603 C11.798048,35.7646352 11.8726805,35.9604795 12.01467,36.102469 C12.1566594,36.2444584 12.3525038,36.319091 12.5529786,36.3076081 L27.226347,36.3076081 Z M8.61396404,36.3076081 C8.81340262,36.3195029 9.00823404,36.2445294 9.14825141,36.1020079 C9.28826878,35.9594864 9.35977724,35.7633568 9.34434948,35.5641603 L9.34434948,23.8254276 C9.4139629,23.6144006 9.35842958,23.3821547 9.20088486,23.2254445 C9.07506056,23.0688699 8.87923162,22.9856471 8.67918098,23.0037322 L6.40968211,23.0037322 C3.98878418,23.0248627 2.02943233,24.9784091 2.00111826,27.3992337 L2.00111826,35.5380672 C1.98994855,35.7361679 2.06285456,35.9297909 2.20190949,36.0713266 C2.34096442,36.2128623 2.53326816,36.2891804 2.73153532,36.281515 L8.61396404,36.281515 L8.61396404,36.3076081 Z M37.0347279,36.3076081 C37.2352027,36.319091 37.4310471,36.2444584 37.5730366,36.102469 C37.715026,35.9604795 37.7896586,35.7646352 37.7781757,35.5641603 L37.7781757,27.3992337 C37.7851164,26.2230863 37.3245375,25.0923564 36.4977661,24.255804 C35.6709947,23.4192517 34.5457595,22.9454069 33.3696119,22.9385152 L31.1001446,22.9385152 C30.9436177,22.9385152 30.6567201,23.0037322 30.5784091,23.1602275 C30.4895334,23.3481215 30.4406788,23.5524364 30.4349445,23.7602107 L30.4349445,35.4989434 C30.4195158,35.6981457 30.4910283,35.8942809 30.6310529,36.0368035 C30.7710775,36.1793262 30.9659177,36.2542955 31.1653616,36.2423912 L37.0347279,36.3076081 Z M32.7044434,21.8428896 C34.8214313,21.874631 36.7476842,20.6238242 37.5799092,18.6770199 C38.4121342,16.7302156 37.9852865,14.4734993 36.4995311,12.9651305 C35.0137758,11.4567617 32.7637641,10.9958765 30.8046117,11.7986014 C28.8454593,12.6013263 27.5657004,14.5084668 27.5654625,16.6256927 C27.5480548,18.0010996 28.0813737,19.3263572 29.0466407,20.3063096 C30.0119077,21.2862621 31.3289621,21.8395292 32.704475,21.8428896 L32.7044434,21.8428896 Z M7.21834685,21.8428897 C8.59494719,21.8430492 9.91405855,21.2908978 10.8800797,20.3101676 C11.8461008,19.3294375 12.3782568,18.0021334 12.3572961,16.6256927 C12.3572961,13.7875293 10.0565102,11.4867434 7.21834685,11.4867434 C4.38018353,11.4867434 2.07939756,13.7875293 2.07939756,16.6256927 C2.05843697,18.0021279 2.59058863,19.3294271 3.55660291,20.3101564 C4.52261719,21.2908856 5.84172037,21.8430407 7.21831522,21.8428897 L7.21834685,21.8428897 Z M19.8831158,17.3039235 C21.6495029,17.3005121 23.3414193,16.5919616 24.5830812,15.3356135 C25.8247431,14.0792654 26.5133511,12.3791348 26.4959616,10.6128301 C26.4959616,8.25029344 25.2355634,6.06721956 23.1895466,4.88595124 C21.1435299,3.70468292 18.6227333,3.70468292 16.5767166,4.88595124 C14.5306999,6.06721956 13.2703016,8.25029344 13.2703017,10.6128301 C13.2564117,12.3780889 13.9461482,14.0761926 15.1870472,15.3317807 C16.4279461,16.5873688 18.1178158,17.2970399 19.8831158,17.3039235 L19.8831158,17.3039235 Z" id="形状"></path>
        </g>
    </g>
</svg>